<svg width="200" height="80" viewBox="0 0 200 80" fill="none" xmlns="http://www.w3.org/2000/svg">
<rect width="200" height="80" fill="#C6C6C6"/>
<path d="M54 27L80.6667 53.6667" stroke="#858485" stroke-width="2.96296" stroke-linecap="round" stroke-linejoin="round"/>
<path fill-rule="evenodd" clip-rule="evenodd" d="M56.6187 28.0087C55.7857 28.569 55.1052 29.3342 54.6459 30.2356C54.2795 30.9546 54.1335 31.7201 54.0655 32.5529C54 33.3546 54 34.3389 54 35.5314V35.5926V45.0741V45.1353C54 45.5041 54 45.8532 54.0019 46.1831C53.999 46.2406 53.9994 46.2982 54.0031 46.3557C54.0087 47.02 54.0238 47.6039 54.0655 48.1138C54.1335 48.9465 54.2795 49.712 54.6459 50.4311C55.214 51.5461 56.1206 52.4526 57.2356 53.0207C57.9546 53.3871 58.7201 53.5332 59.5529 53.6012C60.3546 53.6667 61.3388 53.6667 62.5314 53.6667H62.5926H72.0741H72.1353C73.3279 53.6667 74.312 53.6667 75.1138 53.6012C75.9465 53.5332 76.712 53.3871 77.4311 53.0207C78.3322 52.5616 79.0972 51.8815 79.6573 51.0489L77.4736 48.865C77.4446 48.9495 77.4135 49.0216 77.3807 49.0859C77.0967 49.6434 76.6434 50.0967 76.0859 50.3807C75.8542 50.4988 75.5221 50.595 74.8726 50.648C74.2058 50.7025 73.3431 50.7037 72.0741 50.7037H62.5926C61.3236 50.7037 60.4609 50.7025 59.7941 50.648C59.1446 50.595 58.8125 50.4988 58.5808 50.3807C58.0233 50.0967 57.57 49.6434 57.2859 49.0859C57.1679 48.8542 57.0717 48.5221 57.0186 47.8726C56.994 47.5711 56.9803 47.2298 56.9726 46.8289L64.0644 39.1594L68.9419 44.037L72.2753 47.3704C72.8538 47.9489 73.7919 47.9489 74.3704 47.3704C74.6935 47.0473 74.8362 46.612 74.7984 46.1898L64.9347 36.326C63.9199 36.015 62.7712 36.2608 61.9684 37.0636C61.9548 37.0772 61.9414 37.0911 61.9283 37.1053L56.963 42.475V35.5926C56.963 34.3236 56.9641 33.4609 57.0186 32.7941C57.0717 32.1446 57.1679 31.8125 57.2859 31.5808C57.57 31.0233 58.0233 30.57 58.5808 30.2859C58.6451 30.2531 58.7172 30.222 58.8017 30.1931L56.6561 28.0476C56.6434 28.0348 56.6309 28.0219 56.6187 28.0087ZM72.1621 39.3633C73.3252 38.4413 75.0203 38.5178 76.0953 39.5926L77.7037 41.201V35.5926C77.7037 34.3236 77.7025 33.4609 77.6482 32.7941C77.595 32.1446 77.4988 31.8125 77.3807 31.5808C77.0967 31.0233 76.6434 30.57 76.0859 30.2859C75.8542 30.1679 75.5221 30.0717 74.8726 30.0186C74.2058 29.9641 73.3431 29.963 72.0741 29.963H62.7618L59.8438 27.0449C60.5894 27 61.4793 27 62.5314 27H62.5926H72.0741H72.1353C73.3279 27 74.312 27 75.1138 27.0655C75.9465 27.1335 76.712 27.2795 77.4311 27.6459C78.5461 28.214 79.4526 29.1206 80.0207 30.2356C80.3871 30.9546 80.5332 31.7201 80.6012 32.5529C80.6667 33.3546 80.6667 34.3388 80.6667 35.5314V35.5926V44.7766V44.7788V45.0741V45.1353C80.6667 46.1874 80.6667 47.0773 80.6218 47.823L72.1621 39.3633Z" fill="#858485"/>
<path d="M105.128 36.44H109.484V37.568H105.128V36.44ZM106.976 36.896H108.284V40.184H106.976V36.896ZM99.932 40.412H108.116V45.068H106.688V41.492H101.3V45.08H99.932V40.412ZM100.916 42.068H107.072V43.028H100.916V42.068ZM100.916 43.616H107.084V44.696H100.916V43.616ZM108.68 33.908L109.316 35C108.916 35.112 108.472 35.212 107.984 35.3C107.504 35.38 107.012 35.444 106.508 35.492C106.004 35.54 105.52 35.576 105.056 35.6C105.04 35.456 105 35.288 104.936 35.096C104.872 34.904 104.804 34.732 104.732 34.58C105.188 34.548 105.656 34.5 106.136 34.436C106.616 34.364 107.076 34.288 107.516 34.208C107.956 34.12 108.344 34.02 108.68 33.908ZM104.732 34.58H106.004V36.368C106.004 36.768 105.976 37.208 105.92 37.688C105.872 38.16 105.772 38.624 105.62 39.08C105.468 39.528 105.248 39.928 104.96 40.28C104.88 40.208 104.772 40.124 104.636 40.028C104.508 39.932 104.372 39.84 104.228 39.752C104.084 39.664 103.96 39.6 103.856 39.56C104.128 39.24 104.324 38.896 104.444 38.528C104.564 38.152 104.64 37.776 104.672 37.4C104.712 37.016 104.732 36.664 104.732 36.344V34.58ZM98.588 34.52H104.264V35.588H98.588V34.52ZM101.324 35.864H102.632V40.16H101.324V35.864ZM98.996 37.832C98.972 37.744 98.932 37.624 98.876 37.472C98.828 37.32 98.776 37.164 98.72 37.004C98.664 36.836 98.612 36.696 98.564 36.584C98.668 36.552 98.772 36.492 98.876 36.404C98.98 36.308 99.092 36.196 99.212 36.068C99.292 35.972 99.412 35.812 99.572 35.588C99.732 35.356 99.904 35.084 100.088 34.772C100.272 34.46 100.432 34.14 100.568 33.812L102.02 34.148C101.796 34.524 101.544 34.9 101.264 35.276C100.992 35.652 100.708 36.004 100.412 36.332C100.124 36.66 99.848 36.944 99.584 37.184V37.208C99.584 37.208 99.536 37.244 99.44 37.316C99.344 37.388 99.244 37.472 99.14 37.568C99.044 37.664 98.996 37.752 98.996 37.832ZM98.996 37.832V36.86L99.596 36.536H104.3V37.652H100.028C99.788 37.652 99.568 37.668 99.368 37.7C99.176 37.732 99.052 37.776 98.996 37.832ZM98.588 38.492C99.052 38.46 99.584 38.42 100.184 38.372C100.784 38.324 101.42 38.276 102.092 38.228C102.772 38.18 103.452 38.128 104.132 38.072V39.08C103.484 39.152 102.832 39.22 102.176 39.284C101.528 39.348 100.904 39.412 100.304 39.476C99.712 39.532 99.172 39.584 98.684 39.632L98.588 38.492ZM110.552 37.988H121.484V39.356H110.552V37.988ZM111.272 34.556H120.824V35.912H111.272V34.556ZM116.06 39.836H117.572V43.064C117.572 43.28 117.608 43.416 117.68 43.472C117.752 43.528 117.92 43.556 118.184 43.556C118.24 43.556 118.332 43.556 118.46 43.556C118.596 43.556 118.74 43.556 118.892 43.556C119.052 43.556 119.2 43.556 119.336 43.556C119.48 43.556 119.588 43.556 119.66 43.556C119.82 43.556 119.944 43.516 120.032 43.436C120.12 43.356 120.18 43.188 120.212 42.932C120.244 42.676 120.272 42.288 120.296 41.768C120.408 41.848 120.544 41.928 120.704 42.008C120.872 42.088 121.044 42.16 121.22 42.224C121.396 42.288 121.548 42.336 121.676 42.368C121.62 43.056 121.528 43.588 121.4 43.964C121.28 44.34 121.088 44.6 120.824 44.744C120.568 44.896 120.22 44.972 119.78 44.972C119.716 44.972 119.624 44.972 119.504 44.972C119.384 44.972 119.248 44.972 119.096 44.972C118.952 44.972 118.804 44.972 118.652 44.972C118.508 44.972 118.376 44.972 118.256 44.972C118.136 44.972 118.044 44.972 117.98 44.972C117.476 44.972 117.084 44.912 116.804 44.792C116.524 44.68 116.328 44.484 116.216 44.204C116.112 43.924 116.06 43.548 116.06 43.076V39.836ZM115.064 35.132H116.54C116.524 36.044 116.488 36.92 116.432 37.76C116.384 38.592 116.276 39.376 116.108 40.112C115.94 40.848 115.668 41.528 115.292 42.152C114.924 42.768 114.416 43.324 113.768 43.82C113.12 44.316 112.284 44.744 111.26 45.104C111.18 44.904 111.052 44.68 110.876 44.432C110.7 44.192 110.524 44 110.348 43.856C111.3 43.552 112.072 43.192 112.664 42.776C113.256 42.352 113.712 41.872 114.032 41.336C114.36 40.792 114.592 40.2 114.728 39.56C114.872 38.912 114.96 38.22 114.992 37.484C115.024 36.74 115.048 35.956 115.064 35.132ZM122.864 34.268H133.16V45.08H131.708V35.552H124.244V45.08H122.864V34.268ZM123.716 43.388H132.488V44.648H123.716V43.388ZM126.296 40.796L126.872 39.98C127.208 40.044 127.56 40.128 127.928 40.232C128.304 40.328 128.66 40.432 128.996 40.544C129.34 40.656 129.632 40.768 129.872 40.88L129.284 41.768C129.052 41.656 128.764 41.54 128.42 41.42C128.076 41.292 127.72 41.172 127.352 41.06C126.984 40.948 126.632 40.86 126.296 40.796ZM126.872 35.516L128.048 35.924C127.816 36.276 127.544 36.624 127.232 36.968C126.92 37.304 126.592 37.62 126.248 37.916C125.904 38.212 125.568 38.472 125.24 38.696C125.176 38.608 125.084 38.512 124.964 38.408C124.852 38.304 124.736 38.2 124.616 38.096C124.496 37.984 124.388 37.896 124.292 37.832C124.788 37.552 125.268 37.208 125.732 36.8C126.204 36.384 126.584 35.956 126.872 35.516ZM130.052 36.476H130.28L130.484 36.416L131.288 36.896C130.976 37.384 130.576 37.836 130.088 38.252C129.608 38.66 129.076 39.028 128.492 39.356C127.908 39.676 127.296 39.956 126.656 40.196C126.024 40.436 125.392 40.632 124.76 40.784C124.72 40.672 124.66 40.544 124.58 40.4C124.508 40.248 124.428 40.104 124.34 39.968C124.26 39.824 124.18 39.708 124.1 39.62C124.7 39.508 125.3 39.356 125.9 39.164C126.508 38.972 127.08 38.748 127.616 38.492C128.16 38.236 128.64 37.952 129.056 37.64C129.48 37.328 129.812 36.996 130.052 36.644V36.476ZM126.644 37.304C126.996 37.664 127.448 37.992 128 38.288C128.552 38.584 129.16 38.84 129.824 39.056C130.496 39.272 131.176 39.44 131.864 39.56C131.736 39.688 131.592 39.86 131.432 40.076C131.28 40.284 131.16 40.468 131.072 40.628C130.368 40.476 129.676 40.264 128.996 39.992C128.316 39.72 127.684 39.396 127.1 39.02C126.516 38.644 126.016 38.232 125.6 37.784L126.644 37.304ZM126.92 36.476H130.46V37.532H126.188L126.92 36.476ZM125.192 42.332L125.84 41.396C126.248 41.436 126.672 41.496 127.112 41.576C127.56 41.648 128.004 41.732 128.444 41.828C128.884 41.916 129.3 42.012 129.692 42.116C130.084 42.22 130.436 42.32 130.748 42.416L130.112 43.436C129.72 43.292 129.244 43.148 128.684 43.004C128.132 42.852 127.552 42.72 126.944 42.608C126.336 42.488 125.752 42.396 125.192 42.332ZM136.688 36.8H144.8V38.288H136.688V36.8ZM140.396 33.812H141.956V37.4H140.396V33.812ZM135.932 34.064H137.444V38.12C137.444 38.728 137.424 39.348 137.384 39.98C137.344 40.604 137.256 41.22 137.12 41.828C136.984 42.428 136.78 43.012 136.508 43.58C136.236 44.14 135.868 44.66 135.404 45.14C135.332 45.02 135.228 44.884 135.092 44.732C134.964 44.588 134.824 44.444 134.672 44.3C134.528 44.164 134.396 44.052 134.276 43.964C134.772 43.428 135.136 42.836 135.368 42.188C135.608 41.54 135.76 40.868 135.824 40.172C135.896 39.468 135.932 38.78 135.932 38.108V34.064ZM136.652 39.812H143.384V45.08H141.788V41.324H136.652V39.812Z" fill="#858485"/>
</svg>
