<svg width="40" height="40" viewBox="0 0 40 40" fill="none" xmlns="http://www.w3.org/2000/svg">
<g filter="url(#filter0_d_221_1701)">
<path d="M12.3441 14.4226L12.8984 14.8383C11.8591 16.2933 11.3048 18.0947 11.3048 19.9654C11.3048 21.351 11.6513 22.7367 12.2748 23.9838C12.6905 24.746 13.1755 25.5081 13.7991 26.1316C15.4619 27.8637 17.7483 28.903 20.2425 28.903V29.5958C17.6097 29.5958 15.1155 28.4873 13.3141 26.6166C12.6212 25.9238 12.067 25.1617 11.6513 24.261C10.9584 22.9446 10.612 21.4896 10.612 19.9654C10.6813 17.8868 11.2356 16.0162 12.3441 14.4226ZM23.9145 28.7644L23.6374 28.1409C24.4688 27.7945 25.3002 27.3095 25.9931 26.6859L26.4088 27.2402C25.7159 27.933 24.8152 28.418 23.9145 28.7644ZM29.4573 22.7367L28.7644 22.5289C29.0416 21.6975 29.1801 20.7968 29.1801 19.8961C29.1801 18.3718 28.8337 16.9169 28.0716 15.6697L28.6951 15.3233C29.4573 16.709 29.873 18.3025 29.873 19.8961C29.873 20.866 29.7344 21.836 29.4573 22.7367ZM27.1709 13.2448L26.6859 13.7298C25.0231 11.9977 22.7367 10.9584 20.2425 10.9584C19.3418 10.9584 18.5104 11.097 17.679 11.3048L17.4711 10.612C18.3718 10.3349 19.2725 10.1963 20.2425 10.1963C22.9446 10.2656 25.3695 11.3741 27.1709 13.2448ZM21.4203 16.6397C20.1732 16.6397 19.1339 15.6005 19.1339 14.3533C19.1339 13.1062 20.1732 12.067 21.4203 12.067C22.6674 12.067 23.7067 13.1062 23.7067 14.3533C23.7067 15.6005 22.6674 16.6397 21.4203 16.6397ZM21.4203 15.9469C22.321 15.9469 23.0139 15.254 23.0139 14.3533C23.0139 13.4527 22.321 12.7598 21.4203 12.7598C20.5196 12.7598 19.8268 13.4527 19.8268 14.3533C19.8268 15.254 20.5196 15.9469 21.4203 15.9469ZM13.7991 21.5589C12.552 21.5589 11.5127 20.5196 11.5127 19.2725C11.5127 18.0254 12.552 16.9861 13.7991 16.9861C15.0462 16.9861 16.0855 18.0254 16.0855 19.2725C16.0855 20.5196 15.1155 21.5589 13.7991 21.5589ZM13.7991 20.866C14.6998 20.866 15.3926 20.1732 15.3926 19.2725C15.3926 18.3718 14.6998 17.679 13.7991 17.679C12.8984 17.679 12.2055 18.3718 12.2055 19.2725C12.2055 20.1732 12.9677 20.866 13.7991 20.866ZM26.6859 22.1132C25.4388 22.1132 24.3995 21.0739 24.3995 19.8268C24.3995 18.5797 25.4388 17.5404 26.6859 17.5404C27.933 17.5404 28.9723 18.5797 28.9723 19.8268C28.9723 21.0739 28.0023 22.1132 26.6859 22.1132ZM26.6859 21.4203C27.5866 21.4203 28.2794 20.7275 28.2794 19.8268C28.2794 18.9261 27.5866 18.2333 26.6859 18.2333C25.7852 18.2333 25.0924 18.9261 25.0924 19.8268C25.0924 20.7275 25.8545 21.4203 26.6859 21.4203ZM32.7136 28.1409C31.4665 28.1409 30.4273 27.1016 30.4273 25.8545C30.4273 24.6074 31.4665 23.5681 32.7136 23.5681C33.9607 23.5681 35 24.6074 35 25.8545C35 27.1016 33.9607 28.1409 32.7136 28.1409ZM32.7136 27.448C33.6143 27.448 34.3072 26.7552 34.3072 25.8545C34.3072 24.9538 33.6143 24.261 32.7136 24.261C31.8129 24.261 31.1201 24.9538 31.1201 25.8545C31.1201 26.6859 31.8129 27.448 32.7136 27.448ZM18.7875 27.5866C17.5404 27.5866 16.5012 26.5473 16.5012 25.3002C16.5012 24.0531 17.5404 23.0139 18.7875 23.0139C20.0346 23.0139 21.0739 24.0531 21.0739 25.3002C21.0739 26.5473 20.0346 27.5866 18.7875 27.5866ZM18.7875 26.8938C19.6882 26.8938 20.3811 26.2009 20.3811 25.3002C20.3811 24.3995 19.6882 23.7067 18.7875 23.7067C17.8868 23.7067 17.194 24.3995 17.194 25.3002C17.194 26.2009 17.8868 26.8938 18.7875 26.8938ZM26.2009 34.0993C24.9538 34.0993 23.9145 33.06 23.9145 31.8129C23.9145 30.5658 24.9538 29.5266 26.2009 29.5266C27.448 29.5266 28.4873 30.5658 28.4873 31.8129C28.4873 33.06 27.448 34.0993 26.2009 34.0993ZM26.2009 33.4065C27.1016 33.4065 27.7945 32.7136 27.7945 31.8129C27.7945 30.9122 27.1016 30.2194 26.2009 30.2194C25.3002 30.2194 24.6074 30.9122 24.6074 31.8129C24.6074 32.7136 25.3002 33.4065 26.2009 33.4065ZM13.3141 34.0993C12.067 34.0993 11.0277 33.06 11.0277 31.8129C11.0277 30.5658 12.067 29.5266 13.3141 29.5266C14.5612 29.5266 15.6005 30.5658 15.6005 31.8129C15.6005 33.06 14.5612 34.0993 13.3141 34.0993ZM13.3141 33.4065C14.2148 33.4065 14.9076 32.7136 14.9076 31.8129C14.9076 30.9122 14.2148 30.2194 13.3141 30.2194C12.4134 30.2194 11.7206 30.9122 11.7206 31.8129C11.7206 32.7136 12.4134 33.4065 13.3141 33.4065ZM7.28637 27.5866C6.03926 27.5866 5 26.5473 5 25.3002C5 24.0531 6.03926 23.0139 7.28637 23.0139C8.53349 23.0139 9.57275 24.0531 9.57275 25.3002C9.57275 26.5473 8.53349 27.5866 7.28637 27.5866ZM7.28637 26.8938C8.18707 26.8938 8.87991 26.2009 8.87991 25.3002C8.87991 24.3995 8.18707 23.7067 7.28637 23.7067C6.38568 23.7067 5.69284 24.3995 5.69284 25.3002C5.69284 26.2009 6.38568 26.8938 7.28637 26.8938ZM7.28637 15.739C6.03926 15.739 5 14.6998 5 13.4527C5 12.2055 6.03926 11.1663 7.28637 11.1663C8.53349 11.1663 9.57275 12.2055 9.57275 13.4527C9.57275 14.6998 8.53349 15.739 7.28637 15.739ZM7.28637 15.0462C8.18707 15.0462 8.87991 14.3533 8.87991 13.4527C8.87991 12.552 8.18707 11.8591 7.28637 11.8591C6.38568 11.8591 5.69284 12.552 5.69284 13.4527C5.69284 14.3533 6.38568 15.0462 7.28637 15.0462ZM5.76212 16.2933L7.07852 16.6397C6.87067 17.6097 6.7321 18.7182 6.7321 19.8268C6.7321 20.5889 6.80139 21.2818 6.87067 21.9746L5.48499 22.1824C5.4157 21.4203 5.34642 20.5889 5.34642 19.8268C5.34642 18.5797 5.48499 17.4018 5.76212 16.2933ZM8.0485 28.3487L9.15704 27.5866C9.71132 28.418 10.4042 29.1109 11.097 29.8037L10.1963 30.7737C9.3649 30.0115 8.67206 29.2494 8.0485 28.3487ZM15.6697 33.9607L16.0855 32.6443C17.4018 33.06 18.7875 33.2679 20.1732 33.2679C21.2818 33.2679 22.321 33.1293 23.3603 32.8522L23.7067 34.1686C22.5289 34.4457 21.351 34.5843 20.1732 34.5843C18.649 34.6536 17.1247 34.3764 15.6697 33.9607ZM29.5958 31.2587L28.6951 30.2194C29.388 29.6651 30.0115 28.9723 30.6351 28.2794L31.7436 29.1801C31.0508 29.873 30.358 30.6351 29.5958 31.2587ZM34.7229 22.6674L33.3372 22.3903C33.4757 21.5589 33.6143 20.6582 33.6143 19.7575C33.6143 12.4134 27.5866 6.38568 20.1732 6.38568C16.0855 6.38568 12.2748 8.25635 9.7806 11.3048L8.67206 10.4734C11.4434 7.00924 15.6697 5 20.1732 5C28.3487 5 35 11.6513 35 19.8268C35 20.7968 34.9307 21.7667 34.7229 22.6674ZM15.1848 13.8684H9.22633V13.1755H15.5312L20.1039 19.4804H24.8152V20.1732H19.7575L15.1848 13.8684ZM20.3811 32.0901H15.254V31.3972H20.0346L24.5381 25.4388H30.6351V26.1316H24.8845L20.3811 32.0901ZM23.3603 14.3533H26.8938V15.0462H23.3603V14.3533ZM28.1409 14.1455H28.8337V14.8383H28.1409V14.1455ZM12.067 11.1663H12.7598V11.8591H12.067V11.1663ZM24.6074 23.7067H25.3002V24.3995H24.6074V23.7067ZM14.1455 11.1663H14.8383V11.8591H14.1455V11.1663ZM13.1062 23.1524H13.7991V23.8453H13.1062V23.1524ZM19.1339 33.7529H19.8268V34.4457H19.1339V33.7529ZM26.6859 23.7067H27.3788V24.3995H26.6859V23.7067ZM16.2933 11.1663H16.9861V11.8591H16.2933V11.1663ZM15.254 23.1524H15.9469V23.8453H15.254V23.1524ZM21.2125 33.7529H21.9053V34.4457H21.2125V33.7529ZM28.8337 23.7067H29.5266V24.3995H28.8337V23.7067ZM30.0808 14.1455H30.7737V14.8383H30.0808V14.1455Z" fill="url(#paint0_linear_221_1701)" shape-rendering="crispEdges"/>
</g>
<defs>
<filter id="filter0_d_221_1701" x="0" y="0" width="40" height="39.595" filterUnits="userSpaceOnUse" color-interpolation-filters="sRGB">
<feFlood flood-opacity="0" result="BackgroundImageFix"/>
<feColorMatrix in="SourceAlpha" type="matrix" values="0 0 0 0 0 0 0 0 0 0 0 0 0 0 0 0 0 0 127 0" result="hardAlpha"/>
<feOffset/>
<feGaussianBlur stdDeviation="2.5"/>
<feComposite in2="hardAlpha" operator="out"/>
<feColorMatrix type="matrix" values="0 0 0 0 1 0 0 0 0 1 0 0 0 0 1 0 0 0 0.25 0"/>
<feBlend mode="normal" in2="BackgroundImageFix" result="effect1_dropShadow_221_1701"/>
<feBlend mode="normal" in="SourceGraphic" in2="effect1_dropShadow_221_1701" result="shape"/>
</filter>
<linearGradient id="paint0_linear_221_1701" x1="9.74902" y1="5" x2="33.4705" y2="30.5463" gradientUnits="userSpaceOnUse">
<stop stop-color="white" stop-opacity="0.8"/>
<stop offset="0.435001" stop-color="#79A7FF"/>
<stop offset="1" stop-color="#C3C9FF"/>
</linearGradient>
</defs>
</svg>
