<svg t="1747133968464" class="icon" viewBox="0 0 1024 1024" version="1.1" xmlns="http://www.w3.org/2000/svg" p-id="3641" width="200" height="200"><path d="M320 416a64 64 0 0 1 64-64h256a64 64 0 0 1 64 64v192a64 64 0 0 1-64 64H384a64 64 0 0 1-64-64v-192z m64 0v192h256v-192H384z" fill="#000000" p-id="3642"></path><path d="M256 128a64 64 0 0 1 64 64h384a64 64 0 0 1 64-64h64a64 64 0 0 1 64 64v64a64 64 0 0 1-64 64v384a64 64 0 0 1 64 64v64a64 64 0 0 1-64 64h-64a64 64 0 0 1-64-64H320a64 64 0 0 1-64 64H192a64 64 0 0 1-64-64v-64a64 64 0 0 1 64-64V320a64 64 0 0 1-64-64V192a64 64 0 0 1 64-64h64z m0 64H192v64h64V192z m512 64H256v512H192v64h64v-64h512v64h64v-64h-64V256z m0 0h64V192h-64v64z" fill="#000000" p-id="3643"></path></svg>