<svg t="1747134616397" class="icon" viewBox="0 0 1024 1024" version="1.1" xmlns="http://www.w3.org/2000/svg" p-id="7681" width="200" height="200"><path d="M522.666667 917.333333C305.045333 917.333333 128 740.288 128 522.666667S305.045333 128 522.666667 128a393.749333 393.749333 0 0 1 330.389333 178.730667 32 32 0 1 1-53.525333 35.050666A330.026667 330.026667 0 0 0 522.666667 192C340.330667 192 192 340.330667 192 522.666667S340.330667 853.333333 522.666667 853.333333 853.333333 705.002667 853.333333 522.666667a32 32 0 0 1 64 0C917.333333 740.288 740.288 917.333333 522.666667 917.333333" p-id="7682"></path><path d="M818.773333 345.301333v-128a32 32 0 0 1 64 0v128a32 32 0 0 1-64 0" p-id="7683"></path><path d="M850.773333 377.301333h-128a32 32 0 0 1 0-64h128a32 32 0 0 1 0 64M411.84 509.845333c0 14.570667-3.989333 26.24-11.861333 34.730667-7.68 8.32-18.517333 12.522667-32.149334 12.522667-13.866667 0-24.256-4.074667-32-12.757334-8.064-8.064-12.010667-18.986667-12.010666-33.408 0-14.570667 4.010667-25.92 12.202666-34.730666l0.213334-0.234667c7.594667-8.746667 18.048-13.013333 31.957333-13.013333 12.864 0 23.466667 4.245333 31.573333 12.629333 8.021333 8.341333 12.074667 19.861333 12.074667 34.261333m-45.077333-95.168c-27.52 0-50.901333 9.216-69.397334 27.328-18.773333 18.005333-27.946667 40.554667-27.946666 68.928 0 27.178667 8.106667 49.664 24.042666 66.794667 16.682667 17.877333 39.04 26.922667 66.474667 26.922667 13.930667 0 27.050667-2.901333 39.253333-8.832a81.066667 81.066667 0 0 0 16.490667-11.541334c-1.749333 16.085333-6.229333 30.122667-13.376 41.834667-9.429333 15.104-21.077333 22.442667-35.541333 22.442667-22.186667 0-34.538667-9.813333-38.826667-30.869334l-1.28-6.421333h-53.76l1.28 9.109333c6.976 50.026667 38.869333 76.48 92.224 76.48 31.808 0 57.685333-14.336 77.013333-42.730666 17.770667-27.221333 26.752-62.741333 26.752-105.536 0-40.554667-8.597333-73.002667-25.557333-96.512-17.834667-24.810667-44.032-37.397333-77.845333-37.397334M630.741333 555.754667c0 25.962667-2.965333 46.976-8.789333 62.506666-7.509333 19.882667-19.584 29.568-36.992 29.568-17.685333 0-29.418667-9.386667-37.056-29.76-5.888-14.72-8.768-35.136-8.768-62.293333 0-27.52 2.858667-47.914667 8.725333-62.293333l0.106667-0.256c7.466667-20.16 19.2-29.546667 36.992-29.546667 17.514667 0 29.610667 9.664 37.013333 29.653333 5.802667 15.146667 8.768 36.138667 8.768 62.421334z m30.848-99.413334c-17.898667-27.648-43.690667-41.664-76.629333-41.664-32.981333 0-58.773333 14.016-76.693333 41.685334-15.829333 24.533333-23.872 57.962667-23.872 99.413333 0 41.024 8.021333 74.453333 23.914666 99.434667 18.154667 27.626667 43.925333 41.621333 76.650667 41.621333 32.682667 0 58.453333-13.994667 76.672-41.728 15.829333-24.896 23.850667-58.304 23.850667-99.349333 0-41.066667-8.021333-74.453333-23.850667-99.349334l-0.042667-0.064zM749.077333 488.725333a26.410667 26.410667 0 1 1 0.042667-52.821333 26.410667 26.410667 0 0 1-0.042667 52.821333m0-86.912a60.586667 60.586667 0 0 0-60.522666 60.522667 60.586667 60.586667 0 0 0 60.522666 60.522667 60.586667 60.586667 0 0 0 60.522667-60.522667 60.586667 60.586667 0 0 0-60.522667-60.522667" p-id="7684"></path></svg>