<svg t="1747134062868" class="icon" viewBox="0 0 1024 1024" version="1.1" xmlns="http://www.w3.org/2000/svg" p-id="6571" width="200" height="200"><path d="M830.292116 180.517941c51.120125-23.962559 61.5039-12.780031 71.887676-4.792512 27.157566 55.912637 16.773791 65.49766 9.585023 75.881435l-375.413416 477.653666c-10.383775 12.780031-24.76131 20.767551-41.535102 20.767551s-31.950078-7.188768-41.535101-18.371295L256.788216 509.603744c-9.585023-11.182527-14.377535-25.560062-13.578783-39.138845 0.798752-13.578783 7.188768-27.157566 18.371295-37.541342 11.182527-9.585023 25.560062-14.377535 39.138845-13.578783 13.578783 0.798752 27.157566 7.188768 37.541342 18.371295l154.159126 174.127925c-0.798752 0 338.670827-431.326053 337.872075-431.326053zM976.463723 559.925117c-25.560062 0-46.327613 19.170047-46.327613 43.132605l-6.390016 336.274571H93.842818V83.868955h373.017161c24.76131 0 44.730109-18.371295 44.730109-41.535102 0-23.962559-19.968799-42.333853-44.730109-42.333853H33.936422C25.15015 0.798752 16.363879 3.99376 9.973863 8.786271 3.583848 13.578783 0.38884 20.767551 0.38884 27.956318v968.886116c0 7.188768 3.195008 14.377535 9.585023 19.170046 6.390016 4.792512 15.176287 7.98752 23.163807 7.98752H982.853739c8.786271 0 16.773791-3.195008 23.163806-7.98752 6.390016-4.792512 9.585023-11.981279 9.585024-19.170046l6.390015-392.98596c0.798752-24.76131-19.968799-43.931357-45.528861-43.931357z" p-id="6572" fill="#000000"></path></svg>