<svg width="60" height="49" viewBox="0 0 60 49" fill="none" xmlns="http://www.w3.org/2000/svg">
<path fill-rule="evenodd" clip-rule="evenodd" d="M56.4644 18.6387C57.2875 22.6228 58.1097 26.6031 58.9303 30.4232C59.2932 32.112 59.28 33.781 58.7192 35.4236C57.5912 38.6627 55.1701 40.3251 51.5616 40.3317H33.097L34.5945 44.3162H45.0373C46.2973 44.3426 47.3198 45.3585 47.3396 46.6185C47.3594 47.9115 46.3303 48.9802 45.0373 49H14.0584C12.7654 48.9802 11.7363 47.9115 11.756 46.6185C11.7758 45.3255 12.8445 44.2964 14.1375 44.3162H24.587L26.0845 40.3317H7.8375C2.62596 40.3251 -0.619707 36.7892 0.0993531 31.6238C0.435266 29.2072 0.965508 26.8212 1.49605 24.4337C1.6636 23.6798 1.83117 22.9257 1.99266 22.1705C2.71352 18.7664 3.4524 15.3653 4.19106 11.9652C4.54748 10.3246 4.90384 8.68421 5.25811 7.04382C6.07613 3.24402 9.23604 0.00494765 13.115 0.00494765C24.1054 -0.00164922 35.0892 -0.00164922 46.0796 0.00494765C49.8794 0.00494765 53.0723 2.57114 53.8705 6.25879C54.7355 10.2692 55.6004 14.4561 56.4644 18.6387ZM8.35865 34.4869H50.8228C53.2966 34.4803 54.6028 32.9696 54.2202 30.5221C53.9629 28.9059 53.6792 27.3029 53.389 25.6998C52.8079 22.5212 52.2216 19.1673 51.6363 15.8197C51.092 12.7061 50.5486 9.5979 50.0114 6.64141C49.609 4.39847 48.4677 3.40234 46.1918 3.40234H26.4011C21.9086 3.39575 17.4162 3.39575 12.9237 3.40234C10.7203 3.40894 9.5131 4.45784 9.13048 6.60843C8.85252 8.18356 8.56693 9.88577 8.27874 11.6035C7.91032 13.7994 7.53765 16.0207 7.17121 18.0342C6.97944 19.0831 6.78598 20.1316 6.59255 21.18C6.02075 24.279 5.44911 27.3771 4.92167 30.4825C4.49288 32.9894 5.83204 34.4869 8.35865 34.4869ZM46.0794 18.3176C48.2102 18.2912 49.4702 19.472 49.7077 21.3455C49.9024 22.8746 50.1623 24.3986 50.4218 25.9205C50.5754 26.8214 50.7289 27.7217 50.8687 28.6219C51.1194 30.2711 50.0507 31.4454 48.2893 31.4651C46.6362 31.4836 44.983 31.4795 43.3299 31.4753C42.6213 31.4735 41.9128 31.4717 41.2043 31.4717C40.4525 31.4717 39.7 31.4725 38.9472 31.4732C37.4409 31.4747 35.9336 31.4761 34.4293 31.4717C32.2985 31.4651 31.1704 30.3437 31.1309 28.2129C31.1177 27.4697 31.1023 26.725 31.0869 25.9803C31.0561 24.4908 31.0253 23.0014 31.0121 21.5236C30.9923 19.3071 31.9489 18.3439 34.1654 18.3374C35.4919 18.3352 36.8169 18.3388 38.1411 18.3425C40.7882 18.3498 43.4323 18.3571 46.0794 18.3176ZM12.4287 18.6078C16.941 18.588 21.4598 18.588 25.9787 18.6078C27.2453 18.6078 28.2876 19.6105 28.2876 20.8903C28.2876 23.694 28.2348 26.4911 28.1359 29.2948C28.0897 30.6405 26.8957 31.6631 25.5169 31.6697C23.8721 31.674 22.2273 31.6726 20.5824 31.6711C19.76 31.6704 18.9376 31.6697 18.1152 31.6697C17.3104 31.6697 16.5056 31.6704 15.7008 31.6711C14.0911 31.6726 12.4815 31.674 10.8718 31.6697C9.32157 31.6631 8.32544 30.6603 8.52334 29.143C8.89937 26.3262 9.34795 23.5159 9.80974 20.7056C9.98785 19.6303 11.2611 18.6144 12.4287 18.6078ZM17.0333 15.7213C15.6304 15.7243 14.2274 15.7272 12.8245 15.7184C11.1951 15.7118 10.3639 14.6695 10.6343 13.0796C10.9444 11.2919 11.2281 9.50412 11.4853 7.70977C11.7162 6.12652 12.7058 5.18976 14.322 5.18317C18.135 5.16997 21.9546 5.16997 25.7742 5.18317C27.43 5.18976 28.2744 6.04076 28.2744 7.68338C28.281 9.37219 28.281 11.061 28.2414 12.7498C28.2018 14.8476 27.2981 15.7184 25.2135 15.7184H19.1377C18.4363 15.7184 17.7348 15.7199 17.0333 15.7213ZM37.61 15.5498C36.2268 15.5527 34.8447 15.5557 33.4596 15.5469C31.718 15.5403 30.834 14.6299 30.8142 12.9081C30.7992 12.0715 30.7774 11.2349 30.7556 10.3983C30.7294 9.39438 30.7033 8.39045 30.6889 7.38652C30.6691 5.9484 31.4607 5.05782 32.912 5.04463C36.9031 5.01165 40.9008 5.01165 44.8986 5.04463C46.2509 5.05782 47.1085 5.88903 47.346 7.28757C47.3857 7.5255 47.4255 7.76333 47.4653 8.00112C47.7503 9.7016 48.0348 11.3995 48.2432 13.1126C48.4345 14.6959 47.6099 15.5403 45.9936 15.5469C44.5909 15.5513 43.1912 15.5498 41.7904 15.5483C41.0897 15.5476 40.3887 15.5469 39.687 15.5469C38.9941 15.5469 38.3019 15.5483 37.61 15.5498Z" fill="url(#paint0_linear_77_90)"/>
<defs>
<linearGradient id="paint0_linear_77_90" x1="9.36765" y1="-1.22637e-06" x2="47.5588" y2="49" gradientUnits="userSpaceOnUse">
<stop stop-color="white" stop-opacity="0.8"/>
<stop offset="0.435001" stop-color="#79A7FF"/>
<stop offset="1" stop-color="#C3C9FF"/>
</linearGradient>
</defs>
</svg>
