<svg xmlns="http://www.w3.org/2000/svg" pointer-events="none" class="leaflet-zoom-animated" width="1553" height="953" viewBox="-129 -79 1553 953" style="transform: translate3d(-129px, -79px, 0px);"><g><path class="leaflet-interactive" stroke="black" stroke-opacity="1" stroke-width="2" stroke-linecap="round" stroke-linejoin="round" fill="#fff" fill-opacity="0.2" fill-rule="evenodd" d="M428 403L426 400L424 400L423 402L425 411L420 411L416 409L412 411L409 416L411 417L411 422L405 427L407 428L404 431L393 431L395 438L393 441L389 442L388 447L390 451L389 454L391 456L389 458L394 462L393 467L397 473L398 471L397 474L400 471L401 475L408 476L410 480L413 481L411 485L409 485L409 487L417 484L419 485L424 499L431 501L433 504L436 515L434 517L438 518L437 519L440 521L440 524L438 525L440 528L437 532L437 538L440 544L437 547L440 547L442 550L445 549L446 551L442 558L443 559L441 559L440 561L443 563L445 570L444 572L447 571L440 577L440 581L447 585L449 583L447 581L449 579L452 580L459 578L461 582L464 582L468 579L470 580L474 574L476 574L481 583L487 584L489 587L483 592L482 595L487 595L487 602L477 610L477 613L478 624L481 627L488 630L487 631L491 636L490 638L492 639L490 642L492 643L494 649L492 650L492 652L494 652L496 658L500 662L497 662L497 668L500 674L502 675L500 679L501 682L496 686L494 690L496 690L499 693L501 698L507 700L508 696L511 696L512 692L520 695L521 697L528 695L530 696L530 698L528 698L529 702L538 704L544 704L545 702L545 704L547 704L549 698L556 695L557 691L561 687L566 686L569 691L574 687L575 680L577 677L577 670L582 669L582 667L595 668L596 672L593 675L594 680L600 681L598 686L602 687L604 690L604 698L601 702L608 709L608 712L614 718L612 718L612 720L618 722L621 721L620 719L622 718L625 719L624 720L633 719L633 716L641 710L648 716L651 711L654 710L655 707L658 708L658 704L669 704L674 701L677 708L682 708L682 706L687 709L686 712L688 716L693 721L694 725L697 727L693 728L693 730L695 731L693 734L696 740L701 744L705 745L709 744L713 740L713 735L716 730L713 728L716 722L716 718L728 712L728 704L732 695L723 683L723 681L730 674L733 666L741 658L742 652L744 654L746 652L750 655L759 639L763 635L767 636L774 644L779 644L784 647L790 646L787 649L789 650L790 647L794 647L796 641L795 638L791 636L791 634L788 633L780 635L769 627L779 603L784 599L786 601L789 616L801 615L809 610L810 603L812 600L818 600L821 596L822 591L828 585L829 580L834 575L843 577L845 584L851 583L854 579L853 576L857 569L852 569L852 567L855 564L855 562L859 561L858 555L856 555L857 550L854 546L852 537L846 534L842 525L840 524L858 517L861 499L859 494L855 492L868 494L870 493L870 488L862 475L862 469L855 464L855 457L850 452L849 448L862 455L867 453L869 448L872 458L875 457L879 460L886 458L887 463L890 463L893 466L895 465L895 462L897 460L895 459L897 458L897 451L892 446L895 445L895 437L899 434L899 432L892 431L891 429L894 424L893 422L890 421L891 416L896 412L898 407L898 405L895 403L895 398L899 385L897 384L895 379L887 377L882 380L877 377L891 362L901 359L905 351L916 344L917 340L911 339L909 341L900 341L898 335L895 332L893 332L889 337L871 326L864 326L860 324L854 315L851 314L838 292L821 275L818 270L812 266L799 265L782 248L778 241L789 236L792 232L799 230L803 225L806 224L804 219L805 217L798 208L796 208L796 210L786 209L785 208L788 202L783 197L778 199L775 202L775 204L774 201L769 203L773 194L769 192L769 190L771 190L769 174L765 173L765 171L764 173L757 173L756 175L751 177L747 175L741 176L741 179L737 181L731 180L730 182L733 186L732 195L729 193L727 197L726 196L726 199L722 197L717 198L714 200L706 212L704 211L703 206L700 203L701 201L698 197L700 196L696 187L696 190L688 194L687 189L689 183L686 185L674 187L661 185L642 172L631 151L629 150L626 152L624 150L619 150L619 153L617 153L613 149L605 151L603 153L600 150L593 156L593 158L596 160L594 162L594 173L588 179L588 184L584 191L587 201L584 202L580 209L574 210L575 220L569 229L566 229L563 223L558 226L553 232L544 233L544 235L547 238L547 240L544 241L544 246L548 249L555 246L556 259L558 260L558 264L561 268L565 270L558 273L555 270L551 271L547 275L545 274L542 282L539 280L539 282L529 280L524 277L521 280L516 279L511 275L511 273L507 272L497 278L500 293L503 293L504 295L493 302L499 303L498 308L496 308L497 316L500 318L499 334L493 334L493 340L484 349L481 348L481 350L483 351L479 353L480 364L477 366L477 368L474 369L467 378L464 376L458 379L453 386L448 388L448 396L439 399L433 398L430 403zM932 315L938 314L937 310L919 308L913 302L905 303L893 298L891 300L897 310L898 314L896 318L904 327L908 324L913 324L914 328L921 327L935 334L941 334L944 323L936 315L934 316zM979 203L981 204L978 202zM918 297L917 300L920 305L927 297L922 297L922 295L920 296zM926 369L931 373L931 371L935 373L935 371L928 369L926 367zM954 215L956 216L954 220L955 222L963 220L968 221L967 217L962 219L957 214L955 214zM920 276L917 278L915 277L911 280L906 280L906 282L912 284L916 288L924 289L926 291L929 290L928 282L931 280L929 280L927 277L928 276L924 276L922 274L921 275zM940 288L934 290L941 291L946 289L946 287L948 287L948 290L949 289L950 292L953 290L950 284L940 286zM902 447L901 451L904 451L904 449L908 449L908 447L905 447L906 443L904 442L904 447zM986 198L985 199L987 200L989 199L986 197zM879 512L882 514L882 512L887 508L880 510L880 512zM1000 207L1000 208zM867 519L869 518L871 520L874 517L870 518L871 517L869 516L868 519zM942 334L941 337L947 342L949 350L952 351L952 348L950 347L951 344L955 342L955 339L952 338L954 337L954 333L952 332L950 334L945 333L944 331zM954 264L956 264L954 261L955 259L948 257L947 254L945 256L938 256L936 254L935 263L944 264L944 262L952 264zM929 494L930 495L930 493zM922 413L928 410L928 408L926 408L923 411L922 410zM820 602L822 601zM889 516L892 514L888 515zM878 507L882 503L881 500L879 504L880 505zM941 248L940 249L943 250L943 247zM957 262L961 263L959 260L958 262zM859 563L859 565L860 564zM960 291L964 293L962 291zM933 348L929 348L927 350L939 360L941 358L939 356L940 354L937 353L940 352L940 350L935 348zM938 251L940 251zM927 379L929 379zM767 670L769 669L768 667L766 669zM989 296L990 297L990 294zM954 320L955 322L954 319zM923 353L925 353L923 353zM872 461L876 466L878 465L877 459L872 459zM796 674L796 676L798 673zM923 405L922 406L924 406L924 404zM902 381L902 384L904 382L903 381zM932 490L933 490zM967 292L965 291zM892 209L894 220L899 227L911 236L917 236L908 228L900 225L897 219L898 215L895 207zM981 295L983 297L983 294L981 294zM934 292L934 291zM885 551L888 547L886 546L886 544L882 547L884 547L883 550zM858 579L859 580L859 577L857 578zM785 631L785 633L786 631zM922 377L924 376L926 371L925 368L917 361L916 357L910 357L905 367L908 369L911 367L913 368L917 376L921 376zM929 372L929 374L930 373zM959 214L957 212L957 214zM945 236L947 238zM909 236L906 237L908 240L910 239L909 238L912 237zM945 349L946 351L948 350L947 349zM929 375L931 376L930 375zM897 439L898 439zM823 608L823 605L822 608zM958 333L958 336zM972 229L975 226L971 224L969 228zM922 291L923 294L925 293L925 291L923 291zM954 233L953 234L955 233zM896 403L898 404L897 403zM787 654L789 655L788 654zM787 653L789 653L788 652zM882 558L889 553L882 556zM926 292L930 293L929 291L927 292zM896 399L899 399L898 398zM859 459L858 457zM919 382L917 383L920 382zM860 460L862 461zM907 298L906 295L901 297L902 301L907 299zM949 330L950 325L953 324L951 323L952 320L948 321L946 328L947 329zM885 311L879 310L880 315L878 318L878 326L880 329L883 330L890 326L889 317L887 317L883 312zM784 700L779 695L776 698L779 700L778 698L782 699zM941 291L942 291zM877 315L880 315L876 313zM893 445L895 449L897 449L897 447L895 446L896 445zM940 350L942 351L941 349zM904 361L900 363L901 368L903 367L903 364L905 362zM758 664L759 665L759 663zM798 676L799 677L800 675zM965 228L966 229zM917 234L918 233L916 233zM991 299L993 299L992 298zM967 226L969 227L968 225zM891 308L887 311L892 316L894 310L893 308zM781 650L780 652L782 652L782 650zM893 282L896 282L899 279L898 274L891 276L889 279L890 280zM987 297L988 298L986 294zM857 464L858 465zM858 565L859 565zM928 354L930 355zM890 468L893 467L890 467zM953 223L952 225L955 225zM880 558L880 556zM900 438L899 440L901 439zM850 235L852 234L850 234zM922 328L921 327L917 329L921 330L922 332L925 331zM915 293L916 294L918 292zM881 308L881 310L882 309zM928 364L929 364zM899 413L901 413zM789 654L790 655zM924 366L927 367L926 365zM748 665L749 667L749 665zM936 366L939 365L939 363L932 362L933 359L931 357L926 358L931 365L934 365zM799 646L798 646zM919 239L921 238L919 238zM932 248L934 249L935 247L933 247zM852 587L853 586zM897 424L897 422L895 423zM997 305L998 307L1000 306L999 304L997 304zM924 355L922 355L922 357L925 356zM748 671L747 673L749 670zM918 331L916 332L920 333L920 330zM957 329L957 330zM835 609L839 606L838 605L835 607zM959 264L960 264zM815 607L818 605L818 603L815 605zM942 236L941 237L943 236zM933 285L932 290L940 288L938 285zM935 346L941 347L944 343L938 342L936 344zM982 204L984 203L981 203zM999 222L1001 221L1001 216L996 219L999 220zM896 310L896 313L897 311zM796 676L797 675zM783 629L790 625L786 621L780 621L775 625L775 627L777 628L781 627zM875 530L874 532L876 531zM908 326L908 329L911 327L909 325zM918 330L915 330L918 331zM896 315L898 315L897 313L896 314zM757 662L756 663L757 662zM949 215L949 212zM922 413L921 414L923 414zM858 456L860 456L859 455zM936 230L937 228L935 230zM794 625L801 621L795 619L792 623zM920 355L922 354L920 354zM957 332L958 332zM789 618L792 616L789 617zM1007 221L1006 216L1002 217L1003 219L1005 219zM900 340L902 340L900 338zM916 328L917 327zM911 333L909 332L909 334L911 334zM928 367L929 367zM926 331L934 335L930 331L924 329zM913 331L915 331L915 329L913 328zM895 316L894 317L896 318L896 316zM903 332L904 336L906 332L904 330zM776 623L782 620L780 618L776 620zM932 345L935 345L931 344zM924 360L923 361L925 360zM891 555L892 556L892 554zM900 340L901 340zM936 335L938 337L940 335L936 335zM926 371L928 371zM904 328L906 329L905 327zM780 703L782 703L780 702zM785 696L785 698L786 697zM938 341L939 341zM782 693L782 694z" id="浙江省"/><path class="leaflet-interactive" stroke="#333" stroke-opacity="1" stroke-width="1" stroke-linecap="round" stroke-linejoin="round" stroke-dasharray="1,6" fill="#eee" fill-opacity="0.5" fill-rule="evenodd" d="M679 278L677 278L677 275L675 277L675 275L672 274L672 267L670 267L668 273L669 276L665 281L666 287L662 287L662 291L659 295L660 296L667 293L674 284L679 282L679 280z" id="上城区"/><path class="leaflet-interactive" stroke="#333" stroke-opacity="1" stroke-width="1" stroke-linecap="round" stroke-linejoin="round" stroke-dasharray="1,6" fill="#eee" fill-opacity="0.5" fill-rule="evenodd" d="M653 276L655 282L660 281L662 287L666 287L665 281L669 276L669 274L667 273L669 272L668 269L670 267L667 266L663 270L659 268L659 274L653 275z" id="拱墅区"/><path class="leaflet-interactive" stroke="#333" stroke-opacity="1" stroke-width="1" stroke-linecap="round" stroke-linejoin="round" stroke-dasharray="1,6" fill="#eee" fill-opacity="0.5" fill-rule="evenodd" d="M641 298L644 299L642 308L644 308L645 311L657 313L658 311L660 312L665 310L658 303L657 300L662 291L662 286L660 282L655 282L654 277L647 272L645 274L644 279L649 282L649 289L647 289L643 293L642 292L644 294L642 294L642 297z" id="西湖区"/><path class="leaflet-interactive" stroke="#333" stroke-opacity="1" stroke-width="1" stroke-linecap="round" stroke-linejoin="round" stroke-dasharray="1,6" fill="#eee" fill-opacity="0.5" fill-rule="evenodd" d="M670 290L658 298L657 300L660 305L664 302L668 305L670 304L671 301L669 301L670 298L672 298L672 291L670 290z" id="滨江区"/><path class="leaflet-interactive" stroke="#333" stroke-opacity="1" stroke-width="1" stroke-linecap="round" stroke-linejoin="round" stroke-dasharray="1,6" fill="#eee" fill-opacity="0.5" fill-rule="evenodd" d="M726 292L724 291L725 290L715 291L714 286L712 288L709 287L705 289L704 287L703 288L703 286L702 287L699 284L698 281L696 283L693 283L688 288L685 288L681 283L677 282L673 285L670 290L672 293L672 297L670 298L669 301L671 301L669 304L668 305L666 303L662 303L660 305L665 309L659 314L657 318L659 324L655 328L653 333L655 335L652 338L653 340L651 342L656 348L661 343L661 339L663 337L665 339L669 334L675 334L677 337L679 335L681 336L686 331L686 329L688 329L687 322L683 318L685 316L685 312L681 309L680 311L678 309L682 305L684 307L684 305L689 302L691 302L694 305L695 302L696 305L698 305L701 302L701 300L719 303L724 293z" id="萧山区"/><path class="leaflet-interactive" stroke="#333" stroke-opacity="1" stroke-width="1" stroke-linecap="round" stroke-linejoin="round" stroke-dasharray="1,6" fill="#eee" fill-opacity="0.5" fill-rule="evenodd" d="M658 268L658 264L661 259L660 254L656 254L653 251L651 251L649 255L649 261L642 259L637 261L631 256L626 257L626 254L624 254L622 250L621 251L618 249L611 249L612 243L608 243L605 241L602 244L604 247L604 253L602 257L604 261L600 264L605 267L609 266L609 268L612 269L617 275L616 280L617 281L619 279L619 284L624 285L625 288L620 295L623 299L628 296L633 298L634 302L635 300L640 299L644 293L642 292L643 293L647 289L649 289L649 282L644 279L645 274L647 272L653 276L655 274L658 275L658 269z" id="余杭区"/><path class="leaflet-interactive" stroke="#333" stroke-opacity="1" stroke-width="1" stroke-linecap="round" stroke-linejoin="round" stroke-dasharray="1,6" fill="#eee" fill-opacity="0.5" fill-rule="evenodd" d="M641 298L634 301L632 297L628 296L620 301L620 304L613 311L613 313L609 311L607 313L597 306L592 307L591 303L587 300L588 298L586 296L582 297L581 302L580 301L576 304L572 303L570 305L572 308L569 311L572 312L572 314L577 314L577 323L581 323L583 325L583 329L589 329L594 336L599 336L601 343L604 345L618 343L622 349L627 348L627 353L623 357L626 360L632 363L637 360L641 362L645 359L646 352L655 351L654 350L656 348L651 342L653 340L652 337L654 337L654 328L656 328L659 324L658 318L660 313L658 310L656 313L645 311L645 309L642 308L644 300L641 298z" id="富阳区"/><path class="leaflet-interactive" stroke="#333" stroke-opacity="1" stroke-width="1" stroke-linecap="round" stroke-linejoin="round" stroke-dasharray="1,6" fill="#eee" fill-opacity="0.5" fill-rule="evenodd" d="M543 332L545 335L546 328L544 326L550 323L552 326L556 324L563 327L568 326L569 318L567 316L569 310L572 308L570 304L577 304L580 301L581 302L582 298L585 296L588 297L587 300L591 302L591 305L593 307L596 306L602 311L607 313L609 311L612 313L623 299L620 296L622 293L621 292L623 292L624 290L624 284L619 285L620 279L617 281L616 280L617 275L609 268L609 266L606 267L600 264L595 267L595 259L590 262L586 261L586 259L580 265L571 264L570 267L560 273L558 273L555 270L551 271L549 274L545 274L542 282L539 280L539 282L529 280L525 277L523 277L520 280L516 279L514 276L511 275L511 273L507 273L507 271L502 276L497 278L497 284L499 287L498 288L500 292L504 294L500 298L493 301L494 303L499 303L498 308L496 308L496 312L497 316L500 318L500 322L503 324L511 320L511 322L517 320L516 322L518 324L527 323L528 327L532 330L543 332z" id="临安区"/><path class="leaflet-interactive" stroke="#333" stroke-opacity="1" stroke-width="1" stroke-linecap="round" stroke-linejoin="round" stroke-dasharray="1,6" fill="#eee" fill-opacity="0.5" fill-rule="evenodd" d="M679 282L687 288L692 285L692 283L698 281L699 284L702 287L703 286L703 288L704 287L706 289L708 287L713 286L715 291L725 290L724 291L726 292L734 283L732 279L731 269L724 267L701 268L697 271L695 278L690 274L693 268L687 269L680 274L679 280z" id="钱塘区"/><path class="leaflet-interactive" stroke="#333" stroke-opacity="1" stroke-width="1" stroke-linecap="round" stroke-linejoin="round" stroke-dasharray="1,6" fill="#eee" fill-opacity="0.5" fill-rule="evenodd" d="M686 270L682 268L682 266L681 267L685 260L682 247L677 250L667 248L663 255L661 255L658 267L663 270L666 266L672 267L672 274L675 275L675 277L677 275L677 277L679 278L680 273L685 271z" id="临平区"/><path class="leaflet-interactive" stroke="#333" stroke-opacity="1" stroke-width="1" stroke-linecap="round" stroke-linejoin="round" stroke-dasharray="1,6" fill="#eee" fill-opacity="0.5" fill-rule="evenodd" d="M569 312L569 315L567 315L569 318L567 326L557 324L553 326L551 325L551 323L544 326L546 328L546 335L544 335L542 332L536 333L537 335L539 334L542 338L542 340L539 340L536 346L539 350L544 350L546 352L547 350L548 351L548 355L551 359L551 366L555 368L558 367L558 365L563 359L564 363L566 363L566 361L569 363L573 363L576 366L585 362L591 368L590 370L592 372L592 376L600 376L599 379L604 386L607 382L610 385L612 385L615 376L620 372L622 374L627 375L638 374L637 370L630 369L631 368L628 364L629 363L623 357L627 353L627 348L622 349L619 343L609 345L608 344L604 346L600 342L600 338L597 335L594 336L594 334L589 329L582 328L583 325L581 323L577 323L579 319L578 316L575 313L573 314L570 312z" id="桐庐县"/><path class="leaflet-interactive" stroke="#333" stroke-opacity="1" stroke-width="1" stroke-linecap="round" stroke-linejoin="round" stroke-dasharray="1,6" fill="#eee" fill-opacity="0.5" fill-rule="evenodd" d="M500 323L499 333L492 334L493 341L484 349L481 348L482 351L479 353L480 364L477 366L477 368L474 369L467 378L464 376L462 378L459 378L453 386L448 389L448 397L442 397L439 399L433 398L428 404L435 411L437 411L436 413L439 415L439 417L444 420L451 419L451 421L455 424L458 423L462 425L466 433L462 433L462 438L466 445L470 443L476 445L483 440L482 436L490 432L497 425L498 426L508 419L511 420L517 418L522 412L525 412L528 407L537 405L539 399L538 396L539 395L542 397L547 392L547 390L550 389L549 388L547 390L543 387L545 385L545 381L552 377L554 371L558 367L555 368L550 365L551 358L548 356L548 350L545 352L541 349L539 350L536 347L537 343L542 338L541 335L538 335L536 333L541 333L543 331L541 332L532 330L528 328L527 324L519 324L516 322L516 320L513 322L511 322L511 320L505 324L500 323z" id="淳安县"/><path class="leaflet-interactive" stroke="#333" stroke-opacity="1" stroke-width="1" stroke-linecap="round" stroke-linejoin="round" stroke-dasharray="1,6" fill="#eee" fill-opacity="0.5" fill-rule="evenodd" d="M611 385L607 382L603 386L602 382L599 379L600 376L592 376L592 372L590 370L591 368L586 362L583 362L581 365L576 366L573 363L569 363L567 361L565 363L562 359L554 371L552 377L548 378L545 381L545 385L543 387L546 390L549 388L550 389L547 390L547 392L542 396L538 396L538 404L536 406L527 408L525 412L521 412L520 415L514 419L508 419L504 423L500 424L508 430L506 431L514 442L529 438L529 440L531 441L532 439L536 443L538 441L537 440L540 439L540 437L537 434L539 430L542 431L544 435L543 436L546 437L550 434L550 432L554 432L554 428L558 426L556 422L557 417L555 415L562 409L563 412L566 414L569 410L572 418L571 419L575 424L579 423L581 418L584 419L588 417L591 419L591 416L596 409L600 411L602 410L602 408L603 409L605 407L605 399L609 396L606 394L611 390L611 386z" id="建德市"/><path class="leaflet-interactive" stroke="#333" stroke-opacity="1" stroke-width="1" stroke-linecap="round" stroke-linejoin="round" stroke-dasharray="1,6" fill="#eee" fill-opacity="0.5" fill-rule="evenodd" d="M795 364L797 366L804 364L806 366L822 363L824 364L828 358L827 357L829 358L831 356L835 356L835 354L838 353L836 351L838 351L838 349L842 345L841 342L838 341L839 339L836 340L834 337L832 339L828 335L825 336L823 333L821 333L816 341L814 339L809 338L809 340L801 344L800 348L796 349L794 351L795 352L792 353L791 358L791 356L788 358L790 360L789 362L792 365L794 364z" id="海曙区"/><path class="leaflet-interactive" stroke="#333" stroke-opacity="1" stroke-width="1" stroke-linecap="round" stroke-linejoin="round" stroke-dasharray="1,6" fill="#eee" fill-opacity="0.5" fill-rule="evenodd" d="M832 319L832 317L827 317L821 323L822 327L820 327L820 330L817 332L822 333L825 336L828 335L832 339L833 337L838 339L838 341L840 341L842 344L850 339L853 340L853 338L849 338L838 327L833 327L830 320L832 319z" id="江北区"/><path class="leaflet-interactive" stroke="#333" stroke-opacity="1" stroke-width="1" stroke-linecap="round" stroke-linejoin="round" stroke-dasharray="1,6" fill="#eee" fill-opacity="0.5" fill-rule="evenodd" d="M885 368L891 362L896 362L901 359L904 352L916 344L917 341L915 339L911 339L909 341L900 341L899 336L895 332L893 332L887 337L872 326L864 331L864 333L860 333L859 336L854 339L857 342L858 347L865 344L865 347L871 350L871 352L876 356L876 358L881 363L885 364L885 367zM904 354L904 355zM900 340L902 340L902 338L901 337L900 339zM904 354L904 353zM900 340L901 341L900 340zM919 340L919 341zM902 339L903 338z" id="北仑区"/><path class="leaflet-interactive" stroke="#333" stroke-opacity="1" stroke-width="1" stroke-linecap="round" stroke-linejoin="round" stroke-dasharray="1,6" fill="#eee" fill-opacity="0.5" fill-rule="evenodd" d="M852 314L848 319L843 319L841 317L836 316L832 320L830 320L834 327L838 327L841 329L848 336L848 338L853 338L853 340L872 326L864 326L860 324L855 315L852 315z" id="镇海区"/><path class="leaflet-interactive" stroke="#333" stroke-opacity="1" stroke-width="1" stroke-linecap="round" stroke-linejoin="round" stroke-dasharray="1,6" fill="#eee" fill-opacity="0.5" fill-rule="evenodd" d="M854 339L844 341L842 346L839 347L835 355L836 356L834 355L829 358L831 362L831 368L837 368L845 371L842 377L846 381L850 379L854 382L857 380L864 379L871 383L885 368L885 364L880 362L876 358L876 356L873 353L871 353L871 350L869 350L864 344L859 347L855 339z" id="鄞州区"/><path class="leaflet-interactive" stroke="#333" stroke-opacity="1" stroke-width="1" stroke-linecap="round" stroke-linejoin="round" stroke-dasharray="1,6" fill="#eee" fill-opacity="0.5" fill-rule="evenodd" d="M800 413L805 408L807 403L813 400L818 402L822 396L824 398L827 397L833 400L841 401L851 396L855 396L862 393L871 383L864 379L857 380L855 382L850 379L846 381L842 378L845 372L844 370L838 368L833 369L831 367L829 357L827 357L828 358L824 364L822 363L819 365L816 364L811 366L806 366L804 364L797 366L795 364L795 366L785 373L783 371L780 372L778 370L777 371L780 376L780 379L785 382L785 391L792 394L799 394L800 398L798 400L800 400L798 403L799 407L797 409L800 412z" id="奉化区"/><path class="leaflet-interactive" stroke="#333" stroke-opacity="1" stroke-width="1" stroke-linecap="round" stroke-linejoin="round" stroke-dasharray="1,6" fill="#eee" fill-opacity="0.5" fill-rule="evenodd" d="M877 377L862 393L856 396L851 396L850 397L852 398L844 403L845 407L848 408L850 406L855 411L855 413L862 413L864 415L863 420L867 425L866 429L868 433L876 433L872 438L870 444L870 456L872 458L876 457L879 460L885 457L887 460L886 462L890 463L890 465L893 466L897 460L897 451L891 445L895 445L895 437L899 434L899 432L891 430L894 424L890 421L892 415L896 412L898 407L898 405L895 402L895 398L899 386L892 378L887 377L885 379L881 379zM902 447L902 451L909 447L905 447L906 444L904 442L904 447zM929 494L930 495L929 493zM922 413L928 410L928 408L926 408L923 411L922 410L922 413zM872 461L874 464L876 464L876 466L878 464L877 463L879 463L877 461L879 461L876 458L872 459zM923 405L922 406L924 406L924 404L923 405zM902 381L903 384L904 382L902 381zM932 490L933 491L933 489zM897 439L899 441L897 439zM896 403L899 404L896 403zM896 399L900 399L896 399zM929 405L930 405zM900 380L899 381L900 380zM893 445L893 447L897 449L897 447L895 446L896 445L894 445zM925 407L925 407zM890 468L893 466L890 468zM900 438L900 439zM899 413L901 413L899 412zM896 439L896 438zM931 491L931 491zM897 424L897 422L895 423L896 424zM899 430L901 430L900 429zM895 413L896 414L895 413zM928 418L928 417zM899 423L901 423L899 423zM899 389L899 389zM899 390L900 391L899 390zM929 405L928 405zM931 406L932 407L931 406zM906 454L906 454zM922 413L921 414L923 414L922 413zM902 469L902 469zM927 405L927 405zM871 462L871 462zM932 491L932 490zM897 431L898 430L897 431zM903 431L903 431zM874 467L874 467zM907 442L907 441zM898 380L898 379zM904 434L904 434zM909 445L909 445zM910 399L910 399zM907 443L907 443zM890 377L889 376zM904 432L904 432zM903 458L903 458zM879 462L879 462zM901 466L901 466zM897 460L897 460zM925 416L926 416zM901 431L902 431z" id="象山县"/><path class="leaflet-interactive" stroke="#333" stroke-opacity="1" stroke-width="1" stroke-linecap="round" stroke-linejoin="round" stroke-dasharray="1,6" fill="#eee" fill-opacity="0.5" fill-rule="evenodd" d="M800 413L800 420L795 423L796 427L793 431L793 435L791 436L793 440L791 442L799 444L803 450L803 456L808 460L808 457L812 456L815 453L817 448L816 446L819 444L823 450L826 449L838 453L842 448L849 448L862 455L867 453L872 438L876 434L875 432L867 432L866 423L863 420L864 415L862 413L857 414L853 408L845 407L845 402L853 398L849 397L842 401L833 400L831 398L825 398L822 396L816 402L814 400L812 400L810 403L807 402L804 409L800 413z" id="宁海县"/><path class="leaflet-interactive" stroke="#333" stroke-opacity="1" stroke-width="1" stroke-linecap="round" stroke-linejoin="round" stroke-dasharray="1,6" fill="#eee" fill-opacity="0.5" fill-rule="evenodd" d="M775 273L772 277L753 285L760 298L763 311L767 313L766 314L769 317L768 319L770 322L776 325L779 324L782 327L779 331L776 332L774 339L772 341L778 347L779 346L784 350L784 354L778 361L775 359L774 360L775 363L773 363L772 366L775 367L771 368L772 371L769 372L771 374L777 372L777 370L779 370L780 372L783 371L784 373L787 373L795 365L791 365L791 363L789 363L790 361L788 357L790 356L791 358L792 353L794 353L794 351L798 349L804 341L808 340L811 337L811 339L812 338L816 341L819 338L818 337L820 333L817 332L819 330L819 327L822 327L822 321L825 319L822 318L823 315L799 315L795 313L793 308L798 303L800 303L799 299L786 301L783 298L783 289L778 289L783 285L777 276z" id="余姚市"/><path class="leaflet-interactive" stroke="#333" stroke-opacity="1" stroke-width="1" stroke-linecap="round" stroke-linejoin="round" stroke-dasharray="1,6" fill="#eee" fill-opacity="0.5" fill-rule="evenodd" d="M825 318L831 317L833 319L836 316L838 316L843 319L847 319L852 314L838 292L821 275L818 270L812 266L799 265L786 252L781 266L775 273L783 284L781 288L778 289L783 289L783 298L786 301L799 299L800 302L793 307L794 311L798 315L823 315L822 318L824 319z" id="慈溪市"/><path class="leaflet-interactive" stroke="#333" stroke-opacity="1" stroke-width="1" stroke-linecap="round" stroke-linejoin="round" stroke-dasharray="1,6" fill="#eee" fill-opacity="0.5" fill-rule="evenodd" d="M745 622L741 617L738 616L721 616L718 613L718 605L715 604L712 599L701 600L699 597L691 598L695 602L693 605L695 608L697 608L696 613L702 611L707 615L713 615L718 620L722 620L724 618L724 622L726 624L728 622L731 623L734 620L741 623L745 623z" id="鹿城区"/><path class="leaflet-interactive" stroke="#333" stroke-opacity="1" stroke-width="1" stroke-linecap="round" stroke-linejoin="round" stroke-dasharray="1,6" fill="#eee" fill-opacity="0.5" fill-rule="evenodd" d="M736 639L738 639L738 644L744 654L746 652L750 655L759 639L763 635L755 628L753 628L749 624L749 622L742 623L735 620L733 621L735 623L734 627L738 629L737 637L739 637L737 638L737 636L735 636L736 639z" id="龙湾区"/><path class="leaflet-interactive" stroke="#333" stroke-opacity="1" stroke-width="1" stroke-linecap="round" stroke-linejoin="round" stroke-dasharray="1,6" fill="#eee" fill-opacity="0.5" fill-rule="evenodd" d="M733 622L727 622L725 624L724 618L722 620L718 620L713 615L710 616L701 611L697 613L697 610L693 605L688 608L690 610L686 612L685 619L685 621L690 622L695 626L695 624L700 623L704 625L706 627L706 629L704 629L708 631L707 632L710 632L710 634L713 636L714 634L716 635L718 633L721 636L721 640L726 642L732 638L735 639L736 636L739 638L737 636L738 630L734 627L735 623L733 622z" id="瓯海区"/><path class="leaflet-interactive" stroke="#333" stroke-opacity="1" stroke-width="1" stroke-linecap="round" stroke-linejoin="round" stroke-dasharray="1,6" fill="#eee" fill-opacity="0.5" fill-rule="evenodd" d="M769 627L764 623L749 622L752 628L755 628L763 635L767 636L774 644L778 644L784 647L790 646L787 649L787 651L790 648L794 647L796 639L792 637L789 632L783 635L777 634zM785 631L785 633L785 631zM787 654L788 654zM787 653L789 653L787 653zM781 650L781 652L783 651L782 650zM789 654L790 655L789 654zM786 632L787 632zM799 646L798 646zM777 618L778 619L777 618zM799 629L799 629zM802 644L802 644zM783 629L790 625L786 621L781 621L775 625L776 628L781 627L782 629zM794 625L801 621L795 619L792 622L793 625zM805 618L805 618zM792 631L792 632zM782 648L783 647L782 648zM791 656L791 656zM798 647L798 646zM776 623L782 620L781 618L776 620L775 622zM790 655L790 655zM782 649L783 648zM771 643L771 643zM780 617L780 615L779 616zM776 616L775 616zM789 664L789 664zM804 620L804 619zM777 617L778 616L776 616L777 617zM798 643L798 643zM789 652L789 652zM787 659L787 659zM793 664L793 664zM799 642L799 642zM794 659L794 659zM791 633L791 633zM795 663L795 663zM787 666L787 666z" id="洞头区"/><path class="leaflet-interactive" stroke="#333" stroke-opacity="1" stroke-width="1" stroke-linecap="round" stroke-linejoin="round" stroke-dasharray="1,6" fill="#eee" fill-opacity="0.5" fill-rule="evenodd" d="M766 549L764 545L764 547L761 546L757 549L753 548L752 545L749 544L750 541L744 535L745 534L740 533L737 530L733 530L731 534L725 535L725 537L722 538L721 542L713 542L704 534L698 535L695 547L693 551L691 549L689 554L691 556L690 559L686 556L684 560L684 564L688 566L686 571L692 573L695 576L696 583L698 584L695 589L695 591L697 591L695 597L699 597L701 600L712 599L714 603L718 605L718 613L721 616L730 615L743 618L746 612L746 606L753 592L757 589L757 586L755 586L755 584L758 582L756 571L765 570L765 565L768 564L768 562L765 561L765 556L768 555L766 549z" id="永嘉县"/><path class="leaflet-interactive" stroke="#333" stroke-opacity="1" stroke-width="1" stroke-linecap="round" stroke-linejoin="round" stroke-dasharray="1,6" fill="#eee" fill-opacity="0.5" fill-rule="evenodd" d="M704 686L705 683L703 681L707 683L708 680L712 679L714 681L719 680L723 683L723 681L730 674L732 668L725 664L721 664L721 660L717 655L715 656L711 654L708 660L704 662L704 666L701 668L696 664L694 666L690 662L690 660L687 660L684 657L681 661L678 658L675 660L672 659L670 663L664 666L659 665L656 668L657 669L655 674L657 677L653 681L651 681L655 685L660 686L664 689L664 687L666 687L666 689L670 687L680 688L683 685L691 682L695 682L698 685L697 686L701 684L704 686zM778 700L779 701zM784 700L779 695L778 698L776 698L778 700L778 698L783 700zM734 684L735 685L734 684zM787 697L788 696L786 696zM778 695L778 695zM780 703L782 703L780 702zM785 696L785 698L785 696zM782 693L783 694z" id="平阳县"/><path class="leaflet-interactive" stroke="#333" stroke-opacity="1" stroke-width="1" stroke-linecap="round" stroke-linejoin="round" stroke-dasharray="1,6" fill="#eee" fill-opacity="0.5" fill-rule="evenodd" d="M652 683L650 683L650 685L653 686L656 690L662 692L663 696L664 695L667 698L673 700L676 703L675 706L677 708L682 708L682 706L687 709L687 715L693 721L694 725L697 728L693 728L694 737L701 744L705 745L711 743L713 740L713 735L716 730L713 728L716 722L715 719L728 712L728 704L732 697L729 690L727 693L728 694L727 693L725 697L718 697L716 695L718 694L715 689L710 688L710 690L708 690L708 692L705 694L701 691L704 689L703 685L701 684L700 686L698 686L695 682L683 685L680 688L671 687L666 689L666 687L664 687L664 689L655 685L654 682L652 683zM732 689L732 688zM749 758L749 758zM749 758L749 758zM751 757L751 757zM752 756L752 756zM750 755L750 755z" id="苍南县"/><path class="leaflet-interactive" stroke="#333" stroke-opacity="1" stroke-width="1" stroke-linecap="round" stroke-linejoin="round" stroke-dasharray="1,6" fill="#eee" fill-opacity="0.5" fill-rule="evenodd" d="M671 630L666 628L663 622L655 622L650 624L650 626L646 628L643 627L637 629L637 623L632 624L630 626L626 625L626 623L624 627L622 625L620 626L622 629L619 632L616 631L614 633L616 635L614 639L614 650L615 651L617 647L620 648L620 656L622 656L626 660L626 664L628 667L631 665L636 666L640 664L640 674L644 677L643 678L645 680L651 683L651 681L653 681L657 677L655 675L655 672L657 670L656 668L659 665L664 666L672 661L671 660L675 657L673 657L666 649L664 649L667 644L666 639L671 635L671 630z" id="文成县"/><path class="leaflet-interactive" stroke="#333" stroke-opacity="1" stroke-width="1" stroke-linecap="round" stroke-linejoin="round" stroke-dasharray="1,6" fill="#eee" fill-opacity="0.5" fill-rule="evenodd" d="M614 649L610 649L607 653L600 657L600 659L596 662L596 673L593 675L594 681L600 681L598 687L601 686L604 690L604 698L601 702L609 710L608 712L612 715L612 717L614 717L612 717L613 721L621 721L621 718L625 719L625 721L627 719L633 719L637 713L636 712L641 710L647 716L655 707L658 708L659 704L669 704L674 701L668 698L667 696L664 696L662 693L660 693L660 691L658 691L659 690L650 686L650 684L647 681L648 680L643 678L644 677L640 673L641 666L639 664L636 666L627 666L625 659L620 655L620 649L618 647L615 649L615 651L614 650z" id="泰顺县"/><path class="leaflet-interactive" stroke="#333" stroke-opacity="1" stroke-width="1" stroke-linecap="round" stroke-linejoin="round" stroke-dasharray="1,6" fill="#eee" fill-opacity="0.5" fill-rule="evenodd" d="M732 667L739 661L742 652L744 654L742 649L738 646L738 640L732 638L726 642L723 640L722 641L720 637L721 636L718 633L716 635L711 634L707 630L704 630L706 626L700 623L694 626L690 622L686 621L687 622L684 624L679 623L678 625L673 626L670 633L671 635L666 639L667 644L664 648L673 657L675 657L674 660L678 658L681 661L682 658L684 658L684 656L687 660L690 660L690 662L694 666L696 664L701 668L704 667L705 661L711 655L714 654L715 656L717 655L719 657L721 660L721 664L724 664L730 668zM767 670L766 671L769 669L766 669zM796 674L796 676L799 673L796 674zM758 664L759 665L759 663L758 664zM798 676L799 677L799 675zM777 673L778 672L777 673zM792 673L793 673zM748 665L750 667L748 665zM762 672L762 672zM748 671L747 672L749 671zM796 676L797 677L797 675zM762 669L764 669L763 668zM762 671L762 671zM757 662L756 663L758 662zM750 667L750 667zM759 665L760 665zM761 670L762 669zM795 670L795 670zM787 674L788 674zM760 666L760 666zM746 665L746 664zM795 669L795 668z" id="瑞安市"/><path class="leaflet-interactive" stroke="#333" stroke-opacity="1" stroke-width="1" stroke-linecap="round" stroke-linejoin="round" stroke-dasharray="1,6" fill="#eee" fill-opacity="0.5" fill-rule="evenodd" d="M743 618L746 623L759 622L764 623L769 627L779 603L788 595L789 582L796 575L798 569L797 566L803 560L799 558L797 552L793 549L790 543L789 544L783 541L780 549L766 550L768 554L767 556L765 556L765 560L769 562L767 565L765 565L766 568L764 570L760 572L760 570L756 571L758 581L755 586L757 586L757 588L746 606L746 612L743 617z" id="乐清市"/><path class="leaflet-interactive" stroke="#333" stroke-opacity="1" stroke-width="1" stroke-linecap="round" stroke-linejoin="round" stroke-dasharray="1,6" fill="#eee" fill-opacity="0.5" fill-rule="evenodd" d="M729 690L727 690L725 685L720 680L714 681L712 679L707 681L707 683L703 681L705 683L705 687L702 691L705 694L708 693L710 687L712 689L717 690L716 695L718 697L720 695L722 697L726 697L728 692zM732 689L732 689z" id="龙港市"/><path class="leaflet-interactive" stroke="#333" stroke-opacity="1" stroke-width="1" stroke-linecap="round" stroke-linejoin="round" stroke-dasharray="1,6" fill="#eee" fill-opacity="0.5" fill-rule="evenodd" d="M741 232L743 235L745 235L745 231L753 235L762 234L765 231L764 220L765 221L768 219L767 213L766 214L765 209L760 212L760 210L758 210L757 207L751 208L754 202L751 200L744 206L745 207L743 209L737 208L735 209L736 212L727 216L727 218L729 218L730 221L736 221L738 219L741 220L741 222L739 223L741 226L739 231L741 231z" id="南湖区"/><path class="leaflet-interactive" stroke="#333" stroke-opacity="1" stroke-width="1" stroke-linecap="round" stroke-linejoin="round" stroke-dasharray="1,6" fill="#eee" fill-opacity="0.5" fill-rule="evenodd" d="M748 202L746 200L743 201L744 192L740 188L740 186L742 186L741 182L731 180L730 183L733 185L732 195L731 196L729 193L726 199L724 197L717 198L712 203L710 207L713 207L714 214L719 220L721 220L724 223L723 230L719 234L722 238L734 238L741 232L739 232L739 227L741 226L739 223L741 222L741 220L738 219L736 221L730 221L730 219L728 219L727 216L731 213L736 212L736 208L745 208L744 206L747 202z" id="秀洲区"/><path class="leaflet-interactive" stroke="#333" stroke-opacity="1" stroke-width="1" stroke-linecap="round" stroke-linejoin="round" stroke-dasharray="1,6" fill="#eee" fill-opacity="0.5" fill-rule="evenodd" d="M748 202L750 200L754 201L751 207L757 207L758 210L760 210L760 212L765 209L771 210L774 207L775 204L772 200L769 203L773 195L771 192L769 192L769 190L771 190L769 182L770 177L768 173L764 171L764 173L758 173L752 177L748 175L742 176L740 178L741 179L737 181L739 181L742 185L740 187L741 191L744 191L743 198L744 201L747 200L747 202z" id="嘉善县"/><path class="leaflet-interactive" stroke="#333" stroke-opacity="1" stroke-width="1" stroke-linecap="round" stroke-linejoin="round" stroke-dasharray="1,6" fill="#eee" fill-opacity="0.5" fill-rule="evenodd" d="M765 231L762 234L753 235L745 231L745 235L743 235L742 232L740 232L739 234L737 234L735 238L738 245L737 246L744 252L744 256L747 262L747 269L749 269L750 271L750 277L753 284L759 283L763 280L772 277L781 266L786 252L776 240L775 238L777 238L774 230L771 233L769 231L765 231z" id="海盐县"/><path class="leaflet-interactive" stroke="#333" stroke-opacity="1" stroke-width="1" stroke-linecap="round" stroke-linejoin="round" stroke-dasharray="1,6" fill="#eee" fill-opacity="0.5" fill-rule="evenodd" d="M685 255L685 261L681 266L685 270L693 268L690 274L695 278L697 271L700 268L723 267L732 270L732 278L735 283L742 286L753 285L750 278L750 272L747 268L744 252L737 247L737 241L734 238L727 239L727 237L725 237L727 243L725 245L716 247L713 253L707 253L706 251L705 252L703 250L699 252L697 250L696 253L690 252L689 255L686 255z" id="海宁市"/><path class="leaflet-interactive" stroke="#333" stroke-opacity="1" stroke-width="1" stroke-linecap="round" stroke-linejoin="round" stroke-dasharray="1,6" fill="#eee" fill-opacity="0.5" fill-rule="evenodd" d="M765 209L768 218L766 221L764 220L764 231L767 230L767 232L770 231L772 233L774 231L777 237L776 240L779 244L778 241L789 236L792 232L799 230L804 224L806 224L804 219L805 216L800 212L798 208L796 208L796 210L785 208L788 203L788 201L785 200L785 198L779 198L775 202L776 203L771 210L767 208L765 209zM789 236L789 236zM787 238L787 237zM787 239L787 239zM809 250L810 249zM814 251L814 250zM811 254L811 254z" id="平湖市"/><path class="leaflet-interactive" stroke="#333" stroke-opacity="1" stroke-width="1" stroke-linecap="round" stroke-linejoin="round" stroke-dasharray="1,6" fill="#eee" fill-opacity="0.5" fill-rule="evenodd" d="M710 207L706 212L702 212L704 218L701 221L698 221L700 223L690 225L690 227L688 228L687 226L685 228L685 233L680 234L680 236L683 239L680 242L680 248L683 249L683 253L685 255L691 252L697 253L698 250L698 252L702 250L704 252L705 251L708 253L713 253L717 247L725 245L727 243L727 241L723 237L722 238L719 233L723 231L722 230L724 222L719 220L718 217L716 217L714 214L713 207L711 207z" id="桐乡市"/><path class="leaflet-interactive" stroke="#333" stroke-opacity="1" stroke-width="1" stroke-linecap="round" stroke-linejoin="round" stroke-dasharray="1,6" fill="#eee" fill-opacity="0.5" fill-rule="evenodd" d="M655 181L649 186L646 185L642 188L637 187L638 189L635 193L636 206L634 210L634 216L628 217L624 222L627 226L626 227L631 229L629 234L631 234L634 231L636 231L636 233L641 234L645 230L649 230L652 227L655 230L660 227L663 228L664 226L662 226L659 221L651 219L658 204L660 204L661 206L663 204L665 206L670 205L670 201L684 198L683 195L685 196L685 192L688 191L687 189L689 184L670 187L655 182z" id="吴兴区"/><path class="leaflet-interactive" stroke="#333" stroke-opacity="1" stroke-width="1" stroke-linecap="round" stroke-linejoin="round" stroke-dasharray="1,6" fill="#eee" fill-opacity="0.5" fill-rule="evenodd" d="M686 229L685 228L687 226L690 227L690 225L698 223L700 224L700 222L698 221L704 218L702 214L704 210L703 205L700 204L701 201L698 197L700 195L697 192L698 188L696 187L694 191L688 194L687 192L685 192L686 195L684 195L684 197L680 200L671 201L670 204L666 206L663 204L661 206L659 204L651 217L651 219L659 221L662 226L664 226L665 224L669 225L670 230L671 229L676 232L677 231L675 229L677 229L680 225L682 229L685 229z" id="南浔区"/><path class="leaflet-interactive" stroke="#333" stroke-opacity="1" stroke-width="1" stroke-linecap="round" stroke-linejoin="round" stroke-dasharray="1,6" fill="#eee" fill-opacity="0.5" fill-rule="evenodd" d="M612 244L611 248L622 251L626 257L631 256L636 261L638 261L639 259L649 261L649 255L651 251L653 251L656 254L660 253L660 255L662 255L665 252L665 250L667 250L667 248L672 250L680 248L680 242L683 239L680 236L680 234L684 234L686 229L683 228L682 230L681 225L679 225L679 227L677 228L678 229L675 228L677 230L676 232L671 229L670 230L670 226L666 224L662 228L658 228L655 230L653 227L643 231L641 234L636 233L636 231L629 234L631 229L626 227L627 226L624 222L622 222L620 224L620 228L618 230L617 229L615 234L617 242L612 243z" id="德清县"/><path class="leaflet-interactive" stroke="#333" stroke-opacity="1" stroke-width="1" stroke-linecap="round" stroke-linejoin="round" stroke-dasharray="1,6" fill="#eee" fill-opacity="0.5" fill-rule="evenodd" d="M655 181L649 175L641 171L640 166L636 163L634 154L630 150L619 150L620 151L617 153L614 152L615 151L613 149L605 150L603 153L599 150L595 154L595 156L593 156L593 158L596 160L594 162L594 174L587 181L588 186L585 188L584 194L587 198L589 196L591 198L595 196L599 198L604 198L608 196L610 199L612 199L616 196L619 198L618 199L620 199L615 200L616 207L621 209L622 213L626 214L627 217L631 217L634 216L635 213L635 192L638 189L637 188L645 187L645 185L649 186L655 182z" id="长兴县"/><path class="leaflet-interactive" stroke="#333" stroke-opacity="1" stroke-width="1" stroke-linecap="round" stroke-linejoin="round" stroke-dasharray="1,6" fill="#eee" fill-opacity="0.5" fill-rule="evenodd" d="M587 198L587 200L583 203L581 208L579 210L575 210L575 220L569 229L565 229L563 223L560 224L553 233L544 234L544 236L546 236L545 237L547 239L543 243L543 245L546 246L546 248L548 249L555 246L556 259L558 259L560 267L565 270L571 264L579 265L582 263L583 260L586 259L587 262L594 261L595 259L596 260L594 262L594 266L599 266L598 265L600 265L604 260L602 258L604 253L604 247L602 243L604 241L607 243L616 243L616 231L618 229L619 230L621 225L620 224L624 222L628 217L626 216L626 214L622 212L620 208L616 207L615 200L620 199L618 199L619 198L617 196L613 199L611 199L608 196L604 198L600 198L597 196L591 198L589 196L587 197z" id="安吉县"/><path class="leaflet-interactive" stroke="#333" stroke-opacity="1" stroke-width="1" stroke-linecap="round" stroke-linejoin="round" stroke-dasharray="1,6" fill="#eee" fill-opacity="0.5" fill-rule="evenodd" d="M739 290L733 295L727 304L722 307L715 307L715 311L709 311L709 319L706 322L709 325L711 325L713 331L709 339L712 340L713 343L718 342L720 340L720 334L725 331L728 333L731 339L730 340L735 345L739 343L738 340L741 338L740 332L742 330L740 326L742 324L740 324L737 319L736 320L736 314L741 311L743 313L745 307L749 307L750 303L744 304L742 294L743 293L739 292z" id="越城区"/><path class="leaflet-interactive" stroke="#333" stroke-opacity="1" stroke-width="1" stroke-linecap="round" stroke-linejoin="round" stroke-dasharray="1,6" fill="#eee" fill-opacity="0.5" fill-rule="evenodd" d="M688 328L692 329L695 335L694 336L698 337L705 346L711 348L706 355L707 361L711 367L710 369L715 369L716 366L718 366L721 363L726 363L729 369L733 369L735 367L734 364L738 360L737 344L734 345L731 342L732 341L726 333L726 331L720 334L720 340L718 342L713 343L712 340L709 339L713 332L711 326L706 322L709 319L709 310L714 311L716 306L722 307L727 304L733 295L743 286L735 283L732 285L724 293L719 303L713 303L708 302L706 300L702 300L701 303L699 303L699 305L697 305L695 302L694 305L691 302L689 302L685 304L684 307L682 305L680 306L680 308L678 309L680 311L682 309L685 312L684 318L688 325L688 328z" id="柯桥区"/><path class="leaflet-interactive" stroke="#333" stroke-opacity="1" stroke-width="1" stroke-linecap="round" stroke-linejoin="round" stroke-dasharray="1,6" fill="#eee" fill-opacity="0.5" fill-rule="evenodd" d="M737 344L737 356L740 353L741 354L749 350L749 355L752 359L751 362L757 362L757 364L760 365L763 363L765 365L768 363L772 365L772 363L774 363L773 360L779 360L784 354L784 350L781 347L777 347L772 341L777 331L779 331L782 328L781 325L776 325L774 323L773 324L768 320L769 317L766 314L767 313L763 311L761 301L753 285L743 286L739 290L739 292L743 293L743 302L750 303L749 307L745 307L743 312L744 313L741 311L736 314L737 317L735 320L737 319L739 323L742 324L740 326L742 330L740 332L741 337L738 340L738 344z" id="上虞区"/><path class="leaflet-interactive" stroke="#333" stroke-opacity="1" stroke-width="1" stroke-linecap="round" stroke-linejoin="round" stroke-dasharray="1,6" fill="#eee" fill-opacity="0.5" fill-rule="evenodd" d="M732 422L732 426L734 429L738 426L741 428L739 431L741 433L741 439L749 439L751 436L757 438L756 433L758 432L759 428L764 431L766 428L771 426L773 426L774 428L777 426L783 426L783 428L785 428L786 423L791 423L792 426L795 425L795 423L800 420L800 413L797 408L799 407L798 404L800 401L798 399L800 397L797 394L789 393L787 391L784 392L782 397L774 397L773 393L771 393L770 391L768 393L764 391L764 393L761 391L758 392L756 395L754 393L751 394L747 398L742 400L742 407L741 409L740 407L739 408L736 417L732 421z" id="新昌县"/><path class="leaflet-interactive" stroke="#333" stroke-opacity="1" stroke-width="1" stroke-linecap="round" stroke-linejoin="round" stroke-dasharray="1,6" fill="#eee" fill-opacity="0.5" fill-rule="evenodd" d="M702 400L703 397L708 395L706 386L709 381L707 377L711 368L707 362L706 356L711 348L705 346L697 336L694 336L695 335L692 332L693 329L686 329L682 336L680 335L677 337L674 334L670 334L667 336L668 337L666 339L664 339L663 337L660 344L654 352L646 351L645 359L641 362L637 360L632 363L627 360L631 370L637 370L638 373L643 377L645 377L646 374L645 379L647 380L642 385L642 388L646 389L651 394L653 394L651 398L652 399L655 398L657 400L661 398L666 393L665 392L667 392L669 396L672 398L673 397L675 400L676 399L678 401L675 404L678 408L675 414L676 419L679 421L685 413L690 411L688 409L689 407L694 407L698 402L702 401z" id="诸暨市"/><path class="leaflet-interactive" stroke="#333" stroke-opacity="1" stroke-width="1" stroke-linecap="round" stroke-linejoin="round" stroke-dasharray="1,6" fill="#eee" fill-opacity="0.5" fill-rule="evenodd" d="M772 365L768 363L766 365L764 365L764 363L760 365L757 364L757 362L752 363L749 350L739 354L737 359L738 360L734 364L735 367L733 369L731 370L727 363L722 363L718 366L717 365L715 369L714 368L710 370L707 377L709 384L706 385L706 390L708 394L705 397L703 397L702 400L706 404L708 404L709 406L707 410L709 414L713 416L713 418L716 420L715 423L717 422L719 424L722 423L724 425L728 425L732 422L736 417L740 407L741 409L742 408L741 405L744 401L742 401L751 394L754 393L756 395L760 391L764 393L764 391L769 393L769 391L776 397L782 397L784 395L786 388L784 386L785 383L782 380L780 380L780 375L778 372L774 374L769 373L772 371L771 368L775 367L772 365z" id="嵊州市"/><path class="leaflet-interactive" stroke="#333" stroke-opacity="1" stroke-width="1" stroke-linecap="round" stroke-linejoin="round" stroke-dasharray="1,6" fill="#eee" fill-opacity="0.5" fill-rule="evenodd" d="M554 460L556 469L555 468L554 471L555 476L552 477L557 490L555 490L556 493L554 493L553 495L556 496L557 499L554 502L557 509L563 504L566 510L572 507L576 513L580 505L585 502L585 497L587 495L589 497L590 494L596 490L597 486L606 482L605 481L607 480L608 476L612 474L608 474L608 466L605 465L602 468L598 460L600 458L600 453L598 446L596 444L604 438L598 440L591 440L585 447L585 451L583 454L578 453L574 459L570 455L571 454L568 452L566 453L564 451L564 453L562 455L559 454L555 460z" id="婺城区"/><path class="leaflet-interactive" stroke="#333" stroke-opacity="1" stroke-width="1" stroke-linecap="round" stroke-linejoin="round" stroke-dasharray="1,6" fill="#eee" fill-opacity="0.5" fill-rule="evenodd" d="M618 428L607 436L605 436L603 440L598 441L596 444L600 452L600 458L598 460L600 462L600 467L602 468L605 465L607 466L608 474L617 471L620 472L621 469L625 468L627 465L628 466L631 458L635 453L632 444L630 444L631 436L629 436L627 433L625 433L625 431L621 429z" id="金东区"/><path class="leaflet-interactive" stroke="#333" stroke-opacity="1" stroke-width="1" stroke-linecap="round" stroke-linejoin="round" stroke-dasharray="1,6" fill="#eee" fill-opacity="0.5" fill-rule="evenodd" d="M574 511L572 511L571 524L572 527L574 526L578 530L576 538L582 538L582 542L587 543L593 543L596 540L599 542L603 542L605 537L609 533L612 533L612 531L609 528L611 526L614 528L617 524L617 520L625 514L626 510L627 511L629 509L631 503L633 503L632 502L634 501L638 501L638 495L629 482L634 477L632 473L628 473L631 467L627 465L619 472L613 472L607 477L605 483L597 485L594 493L591 492L589 497L587 495L584 498L584 503L581 504L575 512z" id="武义县"/><path class="leaflet-interactive" stroke="#333" stroke-opacity="1" stroke-width="1" stroke-linecap="round" stroke-linejoin="round" stroke-dasharray="1,6" fill="#eee" fill-opacity="0.5" fill-rule="evenodd" d="M605 406L611 413L617 416L619 412L627 413L628 418L630 416L632 419L634 416L638 420L638 422L639 419L641 419L641 417L650 409L652 404L657 400L655 398L651 398L653 394L651 394L645 389L642 389L643 384L647 382L645 374L644 377L640 376L638 373L633 375L627 375L622 374L620 372L613 379L611 391L606 393L609 396L605 398L604 405z" id="浦江县"/><path class="leaflet-interactive" stroke="#333" stroke-opacity="1" stroke-width="1" stroke-linecap="round" stroke-linejoin="round" stroke-dasharray="1,6" fill="#eee" fill-opacity="0.5" fill-rule="evenodd" d="M681 483L681 488L683 492L690 498L692 498L693 494L696 496L696 498L698 496L702 496L704 498L706 494L705 493L708 490L711 493L715 493L719 489L725 488L727 485L726 483L728 481L728 477L735 476L735 470L733 468L732 470L730 465L732 464L731 461L735 455L738 456L733 452L742 443L741 432L739 432L741 429L740 427L735 427L736 430L733 435L731 435L728 432L726 433L723 436L723 438L719 439L718 443L713 446L711 450L708 449L703 451L702 454L705 454L706 456L705 462L704 463L701 460L699 462L695 462L694 470L689 475L690 476L681 482z" id="磐安县"/><path class="leaflet-interactive" stroke="#333" stroke-opacity="1" stroke-width="1" stroke-linecap="round" stroke-linejoin="round" stroke-dasharray="1,6" fill="#eee" fill-opacity="0.5" fill-rule="evenodd" d="M554 460L560 454L562 455L564 451L566 453L569 453L571 455L570 456L571 457L571 455L571 457L574 459L578 453L582 454L585 451L585 447L590 440L597 440L603 438L616 429L619 425L626 422L626 420L628 420L627 413L620 412L616 416L615 414L609 411L606 406L603 409L602 408L601 411L596 409L591 415L592 419L589 417L583 419L582 418L580 419L581 420L578 424L574 424L574 422L571 419L572 418L569 410L566 414L562 409L558 413L556 412L555 414L557 417L556 421L558 423L558 426L554 428L554 432L550 431L550 433L543 440L545 452L548 456L550 456L551 460L554 460z" id="兰溪市"/><path class="leaflet-interactive" stroke="#333" stroke-opacity="1" stroke-width="1" stroke-linecap="round" stroke-linejoin="round" stroke-dasharray="1,6" fill="#eee" fill-opacity="0.5" fill-rule="evenodd" d="M628 466L634 464L639 468L640 465L649 463L650 460L653 459L653 447L659 438L663 436L660 432L663 427L666 428L672 422L673 415L676 414L678 409L675 406L675 404L678 401L668 395L668 392L666 392L661 398L654 402L649 410L647 410L638 422L638 420L634 416L631 419L631 416L629 416L626 422L618 426L618 428L625 431L625 433L627 433L630 436L630 444L632 444L634 448L634 456L631 457L631 461L629 461L631 463L629 465z" id="义乌市"/><path class="leaflet-interactive" stroke="#333" stroke-opacity="1" stroke-width="1" stroke-linecap="round" stroke-linejoin="round" stroke-dasharray="1,6" fill="#eee" fill-opacity="0.5" fill-rule="evenodd" d="M651 459L664 459L662 462L664 462L663 463L671 464L679 472L683 472L683 478L686 476L688 478L694 470L694 464L696 462L699 462L701 460L704 463L705 462L706 457L705 454L702 453L703 451L707 449L711 450L714 445L719 441L719 439L723 438L723 436L727 432L733 435L736 428L732 427L732 422L728 425L722 423L719 424L717 422L716 423L716 420L713 419L712 415L711 416L707 411L709 406L705 404L706 403L703 400L698 402L694 407L691 406L688 409L690 411L684 414L684 416L679 421L675 415L673 415L672 422L668 427L663 428L660 431L662 432L661 433L663 436L658 439L653 447L654 448L652 452L652 459z" id="东阳市"/><path class="leaflet-interactive" stroke="#333" stroke-opacity="1" stroke-width="1" stroke-linecap="round" stroke-linejoin="round" stroke-dasharray="1,6" fill="#eee" fill-opacity="0.5" fill-rule="evenodd" d="M651 459L649 463L641 465L639 468L635 464L630 465L629 466L631 467L628 470L628 474L631 473L634 476L632 480L629 481L631 486L638 494L638 501L633 502L635 504L638 503L643 505L643 507L645 508L648 508L652 504L654 507L659 508L659 505L663 506L668 504L668 500L675 492L674 484L676 480L677 483L681 483L684 479L686 479L686 477L683 477L683 473L681 471L678 472L676 469L673 468L672 464L663 463L664 462L662 462L664 459L652 459z" id="永康市"/><path class="leaflet-interactive" stroke="#333" stroke-opacity="1" stroke-width="1" stroke-linecap="round" stroke-linejoin="round" stroke-dasharray="1,6" fill="#eee" fill-opacity="0.5" fill-rule="evenodd" d="M482 445L479 455L475 459L473 471L474 477L478 482L474 489L472 489L475 490L479 498L484 493L483 491L485 491L490 485L492 485L492 491L495 492L497 494L498 499L500 499L500 497L502 498L506 496L505 489L507 487L505 484L503 484L504 482L500 480L503 477L502 475L499 477L498 476L497 471L500 469L498 468L499 464L494 459L494 456L492 454L493 451L492 452L490 447L484 446z" id="柯城区"/><path class="leaflet-interactive" stroke="#333" stroke-opacity="1" stroke-width="1" stroke-linecap="round" stroke-linejoin="round" stroke-dasharray="1,6" fill="#eee" fill-opacity="0.5" fill-rule="evenodd" d="M479 498L483 508L485 508L485 520L486 523L489 525L488 533L486 535L487 542L490 539L496 543L502 537L501 532L503 527L505 525L508 526L514 518L518 516L521 512L523 508L521 502L525 499L526 493L528 491L528 484L521 477L523 474L524 475L526 473L522 470L522 468L520 468L520 466L519 468L517 466L518 467L518 465L520 465L518 463L520 463L519 462L520 463L521 460L521 462L523 460L524 461L525 458L523 452L519 443L517 441L514 442L506 431L508 430L500 424L498 426L497 425L490 432L482 436L483 441L481 441L481 443L484 446L491 447L491 452L493 451L492 454L494 456L494 459L499 464L498 467L500 469L497 471L498 476L503 476L500 480L502 482L503 481L503 483L507 486L505 489L506 496L502 498L501 497L499 499L497 494L492 491L493 490L491 485L488 487L488 489L483 491L484 492L479 498z" id="衢江区"/><path class="leaflet-interactive" stroke="#333" stroke-opacity="1" stroke-width="1" stroke-linecap="round" stroke-linejoin="round" stroke-dasharray="1,6" fill="#eee" fill-opacity="0.5" fill-rule="evenodd" d="M433 506L435 506L435 504L438 503L444 505L444 507L449 498L451 497L451 499L457 496L460 497L464 494L464 492L466 494L469 492L470 493L476 487L478 482L473 475L473 471L475 460L479 455L479 451L482 448L481 442L479 442L476 445L472 443L464 445L463 449L459 452L457 458L446 468L442 469L442 473L439 477L435 475L429 480L430 483L428 484L417 484L420 488L423 496L422 497L425 500L430 500L433 503L433 506z" id="常山县"/><path class="leaflet-interactive" stroke="#333" stroke-opacity="1" stroke-width="1" stroke-linecap="round" stroke-linejoin="round" stroke-dasharray="1,6" fill="#eee" fill-opacity="0.5" fill-rule="evenodd" d="M465 445L465 441L462 438L462 432L464 432L465 434L466 433L462 425L451 422L451 419L443 419L438 415L439 414L437 413L437 411L435 411L428 404L428 402L424 400L423 401L425 411L420 411L416 409L414 411L413 410L409 416L411 417L411 422L405 427L407 428L404 431L393 431L395 438L393 441L389 442L388 448L390 450L389 453L391 456L389 458L394 462L393 467L396 470L396 472L398 472L397 471L397 474L400 471L400 474L402 476L407 476L413 482L411 485L409 485L409 487L411 487L418 483L428 484L430 482L429 480L433 476L440 476L442 474L442 468L447 468L458 457L458 454L464 448L464 445z" id="开化县"/><path class="leaflet-interactive" stroke="#333" stroke-opacity="1" stroke-width="1" stroke-linecap="round" stroke-linejoin="round" stroke-dasharray="1,6" fill="#eee" fill-opacity="0.5" fill-rule="evenodd" d="M521 512L530 512L535 510L537 507L545 508L548 502L554 502L557 499L556 496L553 495L553 493L556 492L555 491L557 490L557 488L552 478L555 476L554 471L555 468L556 470L556 462L555 460L551 460L552 458L545 452L544 445L542 444L546 436L544 436L542 431L539 430L537 434L540 437L540 439L537 440L537 443L532 439L529 440L530 438L518 441L520 449L523 451L525 459L522 462L521 461L522 460L520 462L521 463L520 462L520 464L518 466L517 465L517 467L520 466L520 468L522 468L522 470L526 473L521 476L528 483L528 491L526 493L526 499L521 504L523 506L521 511z" id="龙游县"/><path class="leaflet-interactive" stroke="#333" stroke-opacity="1" stroke-width="1" stroke-linecap="round" stroke-linejoin="round" stroke-dasharray="1,6" fill="#eee" fill-opacity="0.5" fill-rule="evenodd" d="M433 506L436 514L435 513L436 514L434 516L437 517L438 520L440 520L440 524L438 526L440 528L437 531L437 537L441 545L437 547L443 550L444 549L446 551L444 552L442 558L443 559L440 560L441 563L443 563L444 569L446 571L444 572L447 571L439 579L442 582L441 583L449 584L447 581L449 579L452 580L455 578L459 578L461 582L467 579L471 580L474 572L478 569L480 566L480 562L482 560L477 559L477 548L481 543L484 544L487 540L486 535L488 533L489 526L485 520L485 508L483 508L476 490L472 489L472 492L467 494L464 492L462 496L458 496L455 498L454 497L452 499L449 498L444 507L444 505L438 503L436 503L434 506z" id="江山市"/><path class="leaflet-interactive" stroke="#333" stroke-opacity="1" stroke-width="1" stroke-linecap="round" stroke-linejoin="round" stroke-dasharray="1,6" fill="#eee" fill-opacity="0.5" fill-rule="evenodd" d="M932 315L935 314L935 310L918 308L913 302L905 303L898 301L894 298L891 300L898 313L896 318L899 320L903 327L908 324L913 324L915 328L922 327L929 330L929 325L932 322L931 317zM907 298L908 297L905 295L901 297L903 301L907 299zM884 312L885 311L879 310L880 316L878 318L878 327L882 330L891 325L889 317L887 317L886 314L883 312zM877 315L880 316L877 313L877 315zM891 308L887 311L890 314L890 316L892 316L894 312L892 308zM885 294L885 293zM881 308L881 310L882 308zM921 330L923 332L925 331L921 327L917 329L920 330zM909 294L910 294zM918 331L916 332L921 332L920 330L918 331zM892 297L891 296zM896 310L896 311zM896 315L898 315L897 313L896 315zM908 326L909 329L911 327L909 325L908 326zM918 330L915 331L918 330zM911 328L910 329L911 328zM906 333L906 335L906 333zM918 307L918 306zM918 327L918 327zM909 331L909 332zM910 289L910 289zM916 328L917 327zM911 333L909 333L910 335L912 334zM879 311L878 311zM878 317L878 317zM913 331L915 331L915 329L914 328L913 330zM906 288L906 288zM895 316L895 318L895 316zM903 332L902 333L904 336L906 334L905 330L904 331zM914 333L914 332zM910 331L910 331zM911 326L912 326zM911 330L911 330zM919 329L919 329zM918 327L919 328zM912 325L913 325zM909 329L910 329zM908 332L908 333zM913 328L913 328zM908 328L908 328zM916 328L917 329L916 328zM922 328L923 329L922 327zM916 329L917 329zM918 328L918 328zM903 295L903 295zM904 328L906 329L906 327L904 328zM924 329L926 329L924 329z" id="定海区"/><path class="leaflet-interactive" stroke="#333" stroke-opacity="1" stroke-width="1" stroke-linecap="round" stroke-linejoin="round" stroke-dasharray="1,6" fill="#eee" fill-opacity="0.5" fill-rule="evenodd" d="M926 369L931 373L931 371L934 373L935 372L929 370L929 368L926 367L925 369zM942 334L941 337L948 343L947 348L952 351L953 350L950 347L950 345L953 344L953 342L955 342L954 338L952 338L955 337L953 335L954 334L952 332L950 334L944 332zM933 348L929 348L927 350L939 360L941 358L937 352L941 352L938 349L934 348zM932 315L932 321L929 325L929 330L934 334L940 334L943 329L944 323L936 315L932 316zM927 379L929 379L927 379zM989 296L990 297L991 294L989 295zM954 320L955 322L953 320zM923 353L925 353L923 353zM981 295L983 297L983 295L981 294zM922 377L925 374L925 368L917 361L915 356L910 357L905 367L908 369L913 367L913 370L916 372L916 374L922 377zM929 372L930 375L931 374L929 372zM945 349L947 351L948 350L945 349zM929 375L930 376L928 375zM958 333L958 336L958 334zM919 382L918 383L919 382zM949 330L950 325L953 324L951 323L952 320L947 324L946 328L948 329zM940 350L941 351L941 349L940 350zM904 361L900 363L901 368L903 367L905 362L904 361zM991 299L992 299zM987 297L988 298L986 294L986 296zM928 354L929 355L928 353zM928 377L929 377zM928 364L929 365L928 364zM924 366L928 367L925 365zM936 366L939 365L939 363L933 362L931 357L926 358L931 365L936 366zM918 380L918 379zM935 314L938 314L938 312L935 310zM997 305L998 307L999 304L997 304zM924 357L924 355L922 355L922 357zM957 329L956 330L957 329zM940 317L940 317zM920 384L920 383zM951 320L951 319zM904 361L905 360L904 361zM935 346L941 347L944 343L943 342L935 344zM926 351L926 350zM948 356L948 356zM913 373L913 373zM930 346L931 345L930 346zM920 355L922 355L920 354zM905 361L905 361zM957 332L958 332zM953 344L954 344zM919 354L920 354zM953 319L953 319zM928 367L930 367L928 367zM953 318L953 319zM959 333L958 332L959 333zM939 312L939 311zM932 345L935 345L933 343L931 345zM941 357L941 357zM959 336L960 336zM924 360L924 362L924 360zM924 329L927 332L934 335L930 331L925 329zM901 368L901 368zM947 331L948 331zM961 317L961 317zM936 335L938 337L940 335L936 335zM942 312L942 312zM904 360L904 360zM926 371L929 372L928 371zM953 333L954 333zM948 331L948 331zM938 341L939 341z" id="普陀区"/><path class="leaflet-interactive" stroke="#333" stroke-opacity="1" stroke-width="1" stroke-linecap="round" stroke-linejoin="round" stroke-dasharray="1,6" fill="#eee" fill-opacity="0.5" fill-rule="evenodd" d="M918 297L917 300L920 305L922 303L921 302L923 302L923 300L926 299L926 297L922 297L922 295L919 297zM920 276L918 278L915 277L912 280L908 279L906 281L916 288L928 291L928 286L930 284L928 282L930 280L927 277L927 275L924 276L921 273L921 275zM940 288L934 290L942 291L945 290L946 287L948 287L948 289L950 289L951 292L953 288L950 284L941 285L940 287zM954 264L956 264L954 262L955 259L951 257L949 258L947 254L945 256L938 256L936 254L935 255L935 263L943 264L945 262L948 264L953 264zM941 248L940 247L940 249L943 250L944 247L943 246L942 248zM957 262L960 264L962 262L961 263L959 260L958 262zM960 291L964 293L963 291L960 291zM938 251L941 252L938 251L939 250zM967 292L968 291L966 292zM934 292L934 291zM945 236L947 238L945 236zM922 291L923 294L925 292L922 291zM926 292L930 293L930 291L926 292zM956 288L956 290L956 288zM941 291L942 292L941 291zM971 293L971 292zM911 277L912 276L911 277zM945 283L948 283L945 284zM949 236L949 236zM962 264L962 264zM893 282L899 280L897 276L898 274L892 275L889 279L893 282zM959 289L959 289zM927 298L927 297zM975 295L974 296L975 295zM919 290L919 290zM915 293L919 293L916 292zM967 261L967 261zM963 265L963 264zM915 275L916 276L915 275zM847 289L848 288L847 289zM932 248L933 249L935 247L933 248zM972 294L972 294zM959 264L960 265L959 264zM863 289L864 288L863 289zM947 253L947 253zM920 306L921 305zM915 301L915 300zM942 236L941 237L943 237L942 236zM933 285L933 290L935 288L940 287L937 285zM952 253L953 253zM853 287L854 287zM934 261L934 260zM972 292L972 292zM934 253L935 253zM975 294L975 294zM848 284L848 284zM903 283L904 283zM1020 260L1019 261L1020 260zM965 260L966 260zM962 289L962 288zM848 288L849 288zM964 260L964 259zM845 283L846 283zM886 275L886 275zM889 277L889 276zM957 260L958 260zM948 290L949 290zM957 260L957 260zM1019 261L1019 261zM1021 260L1021 260zM918 290L918 290z" id="岱山县"/><path class="leaflet-interactive" stroke="#333" stroke-opacity="1" stroke-width="1" stroke-linecap="round" stroke-linejoin="round" stroke-dasharray="1,6" fill="#eee" fill-opacity="0.5" fill-rule="evenodd" d="M979 203L981 204L979 203zM954 215L956 217L954 221L955 222L959 222L961 220L968 221L968 217L961 219L956 214L954 215zM986 198L985 199L987 200L990 198L986 198zM1000 207L1000 209L1000 207zM985 204L984 205L985 204zM993 207L993 208zM895 207L892 209L895 222L901 229L909 235L917 236L908 228L900 225L897 220L897 213zM959 214L957 212L958 214zM909 236L906 236L906 238L909 240L909 238L912 237L910 236zM994 204L994 204zM985 208L985 208zM958 232L959 233L958 232zM972 229L972 227L973 228L975 226L971 224L969 228L972 229zM954 233L953 234L954 232zM998 206L997 207L998 206zM985 207L984 207zM966 230L965 228L966 230zM917 234L918 233L916 233L917 234zM967 226L969 226L966 225zM981 210L982 210zM953 223L952 224L955 225L953 223zM850 235L852 234L851 233L850 235zM919 239L919 238zM996 206L996 206zM961 225L961 225zM949 211L950 211zM996 205L996 204zM982 204L982 202L982 204zM999 222L1002 217L1001 216L999 216L996 219L999 221zM916 238L917 237L915 238zM863 240L864 239L863 240zM917 241L917 241zM995 219L995 219zM949 215L950 212L949 215zM954 222L954 222zM960 213L960 213zM936 230L936 228L935 230zM1007 221L1007 218L1005 216L1002 217L1006 221zM989 201L989 201zM957 211L957 211zM954 222L954 222zM844 238L844 239zM846 237L846 236zM846 240L846 240zM1002 222L1002 221z" id="嵊泗县"/><path class="leaflet-interactive" stroke="#333" stroke-opacity="1" stroke-width="1" stroke-linecap="round" stroke-linejoin="round" stroke-dasharray="1,6" fill="#eee" fill-opacity="0.5" fill-rule="evenodd" d="M846 521L841 521L836 513L831 513L829 512L829 510L824 509L821 506L818 507L819 510L815 511L815 517L817 522L815 528L817 530L816 531L820 532L823 535L826 533L827 536L846 534L842 525L840 524zM885 551L888 548L887 546L886 547L886 545L882 547L884 547L883 550zM882 558L889 553L884 554L882 557zM880 558L880 557zM881 530L882 530zM888 553L890 553L888 553zM875 530L874 531L876 530zM889 541L889 541zM888 562L887 563L888 562zM875 532L875 531zM885 560L886 560zM886 562L886 561zM891 555L892 556L891 554zM888 559L888 559z" id="椒江区"/><path class="leaflet-interactive" stroke="#333" stroke-opacity="1" stroke-width="1" stroke-linecap="round" stroke-linejoin="round" stroke-dasharray="1,6" fill="#eee" fill-opacity="0.5" fill-rule="evenodd" d="M744 533L744 535L748 537L750 540L749 544L751 544L753 548L757 549L761 546L764 547L764 545L765 548L769 550L780 549L784 541L792 545L795 544L800 546L808 542L812 542L808 534L810 532L808 532L808 528L814 526L817 523L817 520L815 518L810 519L807 516L801 517L798 514L796 514L789 516L784 520L782 519L779 522L775 522L774 520L769 519L764 514L762 514L758 518L758 523L755 522L759 527L747 529L744 533z" id="黄岩区"/><path class="leaflet-interactive" stroke="#333" stroke-opacity="1" stroke-width="1" stroke-linecap="round" stroke-linejoin="round" stroke-dasharray="1,6" fill="#eee" fill-opacity="0.5" fill-rule="evenodd" d="M846 534L827 536L826 533L822 535L816 530L814 526L808 528L808 532L810 532L808 534L814 545L818 544L822 547L826 545L830 549L838 546L840 548L845 547L850 551L850 555L856 555L857 550L853 545L852 537L847 535zM854 543L854 542zM853 540L854 540z" id="路桥区"/><path class="leaflet-interactive" stroke="#333" stroke-opacity="1" stroke-width="1" stroke-linecap="round" stroke-linejoin="round" stroke-dasharray="1,6" fill="#eee" fill-opacity="0.5" fill-rule="evenodd" d="M803 456L797 469L804 473L806 471L809 475L808 476L812 478L813 477L815 482L818 481L817 479L819 478L819 476L822 476L824 478L823 479L825 483L829 484L829 488L830 490L832 490L833 493L832 495L843 495L845 497L849 497L855 492L865 494L870 493L870 489L862 476L862 469L854 463L855 457L850 452L849 448L842 448L838 453L827 449L823 450L820 444L816 446L817 447L815 453L810 458L810 456L807 460L804 456zM859 459L859 457L859 459zM860 460L861 461L860 460zM857 464L855 464L858 465L857 464zM873 479L873 478zM874 479L873 479zM870 476L871 476zM866 459L867 460L866 459zM869 476L870 475L869 476zM858 456L860 456L858 455zM869 475L869 474zM859 455L859 455zM857 463L856 463zM858 464L858 464z" id="三门县"/><path class="leaflet-interactive" stroke="#333" stroke-opacity="1" stroke-width="1" stroke-linecap="round" stroke-linejoin="round" stroke-dasharray="1,6" fill="#eee" fill-opacity="0.5" fill-rule="evenodd" d="M803 456L804 450L802 449L799 443L792 442L793 440L791 438L794 431L793 430L796 428L796 426L795 427L795 425L793 424L792 426L791 423L787 423L785 424L786 428L777 425L774 428L772 426L766 428L765 431L759 428L756 434L757 438L752 436L748 439L741 440L742 443L733 452L738 456L735 455L731 460L731 468L732 470L734 468L735 470L734 477L742 474L742 476L745 479L749 480L750 477L752 477L755 473L759 472L763 468L772 468L773 470L778 468L778 466L781 463L787 467L788 466L790 468L790 466L797 470L799 463L803 459L803 457z" id="天台县"/><path class="leaflet-interactive" stroke="#333" stroke-opacity="1" stroke-width="1" stroke-linecap="round" stroke-linejoin="round" stroke-dasharray="1,6" fill="#eee" fill-opacity="0.5" fill-rule="evenodd" d="M734 477L728 477L728 481L726 483L727 484L724 488L720 489L715 493L711 493L708 490L705 493L706 494L704 498L702 496L699 496L695 499L694 503L692 505L691 504L688 512L686 513L687 516L683 518L683 521L687 525L686 527L691 532L691 534L689 536L684 535L683 538L679 540L680 545L685 545L685 547L689 546L693 551L699 534L705 535L712 542L722 542L721 538L724 538L724 535L726 534L731 534L733 530L737 530L743 534L747 529L759 527L754 522L757 523L759 520L758 518L761 514L760 511L762 509L759 504L760 499L757 493L758 492L754 490L755 489L752 485L750 485L750 483L746 479L744 479L742 474L734 477z" id="仙居县"/><path class="leaflet-interactive" stroke="#333" stroke-opacity="1" stroke-width="1" stroke-linecap="round" stroke-linejoin="round" stroke-dasharray="1,6" fill="#eee" fill-opacity="0.5" fill-rule="evenodd" d="M829 582L829 580L834 575L838 575L844 578L845 585L851 583L857 570L855 568L852 568L855 562L859 561L859 556L850 555L850 551L844 547L840 548L838 546L833 548L832 550L832 548L831 549L826 545L822 547L818 544L815 545L812 542L808 542L800 546L795 544L792 546L797 555L799 555L799 557L803 560L802 563L799 563L799 565L797 565L797 573L793 578L795 580L804 580L816 573L816 579L820 580L820 582L828 582zM853 568L855 568L855 566L854 568zM859 563L859 565L859 563zM858 579L859 580L858 577L857 579zM858 565L859 566L857 565zM859 581L860 580L859 581zM854 588L854 587zM852 587L852 586zM855 577L856 576L855 577zM843 584L844 583L843 584zM858 580L858 580zM853 583L853 583zM853 576L854 576zM842 583L843 583zM856 589L856 588zM841 579L841 579zM863 565L863 564zM858 563L858 563zM865 580L865 580zM849 583L849 583zM863 561L863 561zM856 576L856 576zM847 584L847 584z" id="温岭市"/><path class="leaflet-interactive" stroke="#333" stroke-opacity="1" stroke-width="1" stroke-linecap="round" stroke-linejoin="round" stroke-dasharray="1,6" fill="#eee" fill-opacity="0.5" fill-rule="evenodd" d="M797 470L795 470L791 466L787 467L782 463L778 466L778 468L774 470L766 467L765 469L762 469L754 474L752 477L750 477L748 481L750 485L753 486L755 489L754 490L758 492L757 493L759 495L759 504L762 509L760 511L761 514L775 521L774 522L780 522L796 513L797 515L798 514L803 518L808 516L808 518L812 520L816 516L815 511L818 510L820 506L823 509L826 508L827 510L829 510L830 513L836 513L840 518L838 518L839 520L841 521L853 520L858 517L861 503L858 493L855 492L850 497L844 497L845 496L841 494L833 495L832 490L829 489L829 484L827 484L825 480L823 480L824 478L822 476L820 476L818 481L815 482L814 479L810 477L806 471L804 473L797 470zM879 512L881 514L882 511L887 509L886 508L881 510L879 511L880 512zM867 518L867 520L869 518L873 520L874 517L870 518L871 517L869 516L869 518L867 519zM889 516L891 516L892 514L890 514L889 516zM878 507L883 503L882 500L879 503L880 504L878 507zM885 522L885 521zM876 508L877 507L876 509zM874 510L874 509zM879 497L880 496L879 497zM881 514L881 514zM881 517L882 517zM889 516L889 517zM877 523L878 523zM870 504L871 504zM881 519L881 518zM872 503L872 503zM864 515L864 515zM867 515L868 514z" id="临海市"/><path class="leaflet-interactive" stroke="#333" stroke-opacity="1" stroke-width="1" stroke-linecap="round" stroke-linejoin="round" stroke-dasharray="1,6" fill="#eee" fill-opacity="0.5" fill-rule="evenodd" d="M793 579L789 581L788 595L784 599L786 601L789 616L801 615L808 611L812 600L817 601L821 596L823 589L829 583L816 580L817 573L804 580L794 579zM820 602L822 602L820 602zM823 608L823 605L822 608zM833 605L833 605zM823 614L824 614zM823 612L824 611L823 612zM823 603L823 603zM835 609L839 606L838 605L835 607L835 609zM815 607L818 605L818 603L814 606zM833 601L833 601zM821 601L822 600zM789 618L792 616L789 617zM838 610L838 609zM824 589L825 590L824 589zM839 610L839 609zM824 589L824 588z" id="玉环市"/><path class="leaflet-interactive" stroke="#333" stroke-opacity="1" stroke-width="1" stroke-linecap="round" stroke-linejoin="round" stroke-dasharray="1,6" fill="#eee" fill-opacity="0.5" fill-rule="evenodd" d="M592 542L593 552L599 551L602 554L601 562L604 568L604 574L595 574L595 576L599 580L601 578L609 587L604 586L604 589L601 592L603 596L607 596L606 604L615 603L618 599L622 602L623 599L621 596L628 596L629 592L625 588L619 591L616 585L618 580L629 569L632 563L635 563L641 558L644 558L647 553L651 550L653 549L654 552L656 551L660 543L657 542L654 536L652 536L648 541L641 537L638 527L634 527L634 524L630 519L630 514L625 512L625 514L617 520L617 524L614 528L610 526L609 528L612 531L612 533L608 533L603 542L599 542L596 540L593 543z" id="莲都区"/><path class="leaflet-interactive" stroke="#333" stroke-opacity="1" stroke-width="1" stroke-linecap="round" stroke-linejoin="round" stroke-dasharray="1,6" fill="#eee" fill-opacity="0.5" fill-rule="evenodd" d="M684 560L680 560L673 556L672 557L671 553L668 551L660 555L656 551L654 552L653 550L651 550L645 555L643 559L640 558L638 561L633 563L628 570L621 576L616 585L619 591L621 591L624 588L627 589L638 609L638 613L635 618L626 618L627 619L625 622L628 627L636 623L637 628L645 628L650 627L650 625L654 622L663 622L667 629L673 629L675 624L675 626L680 623L685 624L686 612L690 610L688 608L692 606L695 602L691 598L696 596L695 595L697 592L695 588L698 585L696 582L695 575L686 571L688 567L685 566L684 564L686 562L684 560z" id="青田县"/><path class="leaflet-interactive" stroke="#333" stroke-opacity="1" stroke-width="1" stroke-linecap="round" stroke-linejoin="round" stroke-dasharray="1,6" fill="#eee" fill-opacity="0.5" fill-rule="evenodd" d="M684 560L686 556L690 559L691 557L689 554L691 552L691 548L689 546L686 547L682 543L681 545L679 545L679 541L682 538L683 539L683 535L689 536L691 532L686 527L687 526L683 522L683 519L687 515L687 512L689 512L689 508L691 504L692 505L694 503L696 496L694 496L693 494L691 498L688 497L682 491L681 484L677 483L676 480L676 482L674 483L675 493L673 493L669 498L667 501L667 505L659 505L660 506L656 508L653 506L653 504L645 509L639 503L631 503L629 509L625 511L629 514L634 526L638 527L641 537L647 541L652 536L654 536L656 542L660 543L656 550L660 555L667 551L679 560L684 559z" id="缙云县"/><path class="leaflet-interactive" stroke="#333" stroke-opacity="1" stroke-width="1" stroke-linecap="round" stroke-linejoin="round" stroke-dasharray="1,6" fill="#eee" fill-opacity="0.5" fill-rule="evenodd" d="M576 538L578 531L574 526L573 527L571 525L572 512L574 508L573 507L567 510L561 504L558 509L556 508L555 503L553 501L548 502L548 504L544 508L537 507L530 512L523 511L515 517L508 525L503 527L501 533L502 537L496 544L493 540L492 541L490 539L483 544L480 544L477 548L477 559L482 560L480 562L480 566L474 572L474 574L478 575L481 583L484 584L495 573L499 582L504 582L506 587L511 589L513 587L511 582L515 578L519 577L521 580L525 578L528 571L531 572L532 576L536 574L537 565L542 561L541 559L543 556L542 554L544 551L544 547L547 546L548 543L549 544L550 541L558 533L562 531L565 534L570 533L572 534L571 538L576 538z" id="遂昌县"/><path class="leaflet-interactive" stroke="#333" stroke-opacity="1" stroke-width="1" stroke-linecap="round" stroke-linejoin="round" stroke-dasharray="1,6" fill="#eee" fill-opacity="0.5" fill-rule="evenodd" d="M592 542L582 542L582 538L579 537L577 539L572 538L571 533L566 534L563 531L558 533L550 541L550 543L548 543L548 545L545 546L543 549L543 557L541 558L542 560L536 568L537 569L535 575L537 579L540 582L540 577L544 577L548 579L548 581L551 584L559 584L562 582L564 584L569 584L571 581L583 581L583 575L585 574L603 575L604 568L601 562L601 552L594 552L592 543z" id="松阳县"/><path class="leaflet-interactive" stroke="#333" stroke-opacity="1" stroke-width="1" stroke-linecap="round" stroke-linejoin="round" stroke-dasharray="1,6" fill="#eee" fill-opacity="0.5" fill-rule="evenodd" d="M595 574L585 574L583 575L583 581L571 581L569 585L565 583L563 585L566 591L562 601L565 605L565 609L568 614L564 617L563 623L560 620L558 620L558 622L563 629L565 635L567 631L569 633L574 632L576 630L579 631L580 626L577 621L583 621L584 618L587 618L590 614L599 609L606 600L607 596L603 596L601 595L601 593L604 587L608 587L607 584L601 578L599 580L595 576z" id="云和县"/><path class="leaflet-interactive" stroke="#333" stroke-opacity="1" stroke-width="1" stroke-linecap="round" stroke-linejoin="round" stroke-dasharray="1,6" fill="#eee" fill-opacity="0.5" fill-rule="evenodd" d="M577 670L575 670L576 671L574 667L575 664L572 662L566 667L564 665L561 667L551 660L551 657L555 654L554 651L552 649L551 650L551 648L546 648L544 651L544 641L540 644L535 643L533 645L533 647L536 648L537 651L535 654L536 653L536 655L534 655L531 662L529 662L531 660L530 659L527 662L524 662L522 658L518 659L517 651L515 651L515 649L511 649L512 648L509 646L503 647L498 641L492 644L494 649L492 651L498 660L500 660L499 663L497 662L497 668L500 671L501 675L501 682L494 689L497 690L499 694L498 695L500 695L501 698L505 698L507 700L508 697L511 696L511 693L515 692L521 697L529 695L529 701L532 703L544 704L545 702L545 704L547 704L551 697L557 695L557 691L561 687L566 686L569 691L574 687L575 679L577 677L577 671z" id="庆元县"/><path class="leaflet-interactive" stroke="#333" stroke-opacity="1" stroke-width="1" stroke-linecap="round" stroke-linejoin="round" stroke-dasharray="1,6" fill="#eee" fill-opacity="0.5" fill-rule="evenodd" d="M629 592L627 597L622 595L621 596L623 599L622 602L619 599L615 603L606 604L606 600L600 607L601 608L597 609L586 619L584 618L583 621L578 621L580 626L579 631L576 630L571 633L567 631L565 635L562 631L560 631L560 633L558 634L550 633L546 638L547 641L545 641L545 646L543 647L544 651L546 649L551 648L551 650L552 649L554 651L555 654L550 658L550 660L560 667L563 665L566 667L572 662L575 664L574 667L576 671L575 670L576 671L582 669L582 667L585 669L587 667L595 668L597 664L596 661L602 655L608 653L610 650L609 649L614 648L614 640L616 636L614 632L619 632L622 629L620 627L621 625L623 625L624 627L627 617L632 619L635 618L638 613L637 606L631 598L630 593z" id="景宁畲族自治县"/><path class="leaflet-interactive" stroke="#333" stroke-opacity="1" stroke-width="1" stroke-linecap="round" stroke-linejoin="round" stroke-dasharray="1,6" fill="#eee" fill-opacity="0.5" fill-rule="evenodd" d="M563 584L563 582L561 582L560 584L551 584L548 581L548 579L544 577L540 577L540 582L534 575L531 575L530 571L528 571L525 578L521 581L519 577L515 578L511 582L513 586L512 588L509 589L506 587L503 581L498 581L495 573L484 584L489 586L488 589L486 589L482 594L488 596L486 603L480 606L477 610L479 615L477 618L478 624L490 633L490 637L492 639L490 642L493 644L497 641L503 647L512 647L513 648L511 649L515 649L515 651L517 651L517 657L519 659L523 658L524 662L527 662L530 659L531 660L529 662L531 662L533 655L535 655L537 651L537 649L533 647L535 643L540 644L544 641L545 642L550 633L558 634L562 631L563 632L558 623L558 620L560 620L563 623L563 617L568 614L565 609L565 605L562 602L562 598L566 591L563 585z" id="龙泉市"/></g></svg>